{"glyphs":{"0":{"ha":746,"x_min":21,"x_max":726,"o":"m 24 478 q 22 544 22 511 q 24 613 21 578 l 253 467 q 265 315 256 390 l 24 478 m 676 817 q 707 725 696 781 q 722 605 718 669 q 724 471 726 540 q 712 338 721 401 q 688 219 703 274 q 653 129 674 164 q 604 73 635 97 q 537 33 574 49 q 458 8 500 17 q 374 0 417 0 q 288 8 331 0 q 209 33 246 17 q 142 73 172 49 q 93 129 113 97 q 46 258 58 188 q 29 400 33 329 l 281 233 q 292 197 283 219 q 312 152 300 174 q 339 115 324 131 q 372 100 354 100 q 422 133 400 100 q 460 219 444 165 q 485 342 476 274 q 497 483 494 411 q 492 623 499 554 q 472 746 486 692 q 433 833 457 800 q 376 865 410 865 l 369 865 q 322 847 342 865 q 290 798 303 828 q 268 731 276 768 q 256 658 260 694 q 250 592 251 622 q 249 543 249 561 l 29 683 q 44 751 35 718 q 69 817 54 785 q 121 881 89 853 q 193 926 153 908 q 280 953 233 944 q 374 963 326 963 q 467 953 421 963 q 553 926 513 944 q 625 881 593 908 q 676 817 657 853 z "},"1":{"ha":511,"x_min":19,"x_max":490,"o":"m 276 649 q 203 619 244 632 q 122 606 163 606 q 76 611 99 606 q 36 632 54 617 q 23 650 26 639 q 25 672 19 661 q 60 699 35 692 q 119 722 86 706 q 186 774 151 738 q 247 892 221 811 q 290 933 253 919 q 372 947 328 947 q 416 944 394 947 q 454 933 438 940 q 481 916 471 926 q 490 892 490 906 l 490 393 l 276 538 l 276 649 m 276 376 l 276 469 l 490 322 l 490 249 l 276 376 m 490 179 l 490 56 q 457 13 490 28 q 383 -1 424 -1 q 310 13 343 -1 q 276 56 276 28 l 276 307 l 490 179 z "},"2":{"ha":721,"x_min":19,"x_max":708,"o":"m 247 724 q 209 679 244 693 q 132 665 174 665 q 54 680 89 665 q 22 724 19 694 q 60 834 29 788 q 138 911 92 881 q 240 956 183 942 q 356 971 297 971 q 558 928 476 971 q 674 815 640 885 q 692 655 708 744 q 601 474 676 565 l 440 583 q 475 697 472 647 q 463 783 478 747 q 419 837 447 818 q 360 856 390 856 q 288 824 321 856 q 247 724 254 792 m 353 468 q 381 499 367 483 q 407 532 394 515 l 561 426 q 553 417 557 422 q 544 408 549 413 q 524 388 533 397 q 503 368 514 378 l 353 468 m 588 115 q 669 97 640 115 q 699 58 697 79 q 673 19 700 38 q 588 1 646 1 q 378 0 479 1 q 172 -1 276 -1 q 78 21 104 -1 q 53 77 51 43 q 79 153 56 111 q 133 236 103 196 q 196 310 164 276 q 246 363 228 344 l 310 424 l 458 324 q 413 280 439 304 q 361 228 386 256 q 316 173 336 201 q 289 115 296 144 l 588 115 z "},"3":{"ha":693,"x_min":17,"x_max":686,"o":"m 443 226 q 457 292 454 256 l 625 175 q 630 172 628 172 q 635 168 632 171 q 599 118 621 143 l 443 226 m 414 175 q 484 126 449 150 q 554 78 519 101 q 444 18 501 38 q 328 -1 386 -1 q 228 14 276 -1 q 139 60 179 29 q 68 136 99 90 q 22 242 38 182 q 49 281 17 267 q 125 294 82 294 q 197 282 163 294 q 238 242 231 269 q 254 199 243 221 q 280 160 265 178 q 312 130 294 142 q 347 118 329 118 q 381 131 364 118 q 414 175 399 143 m 253 694 q 217 665 246 675 q 153 656 188 656 q 108 660 131 656 q 70 672 86 664 q 47 694 54 681 q 44 724 39 707 q 97 829 65 786 q 165 899 128 872 q 244 939 203 926 q 328 951 286 951 q 437 933 383 951 q 533 881 490 914 q 603 806 575 849 q 636 713 631 763 q 620 613 642 664 q 543 513 599 561 q 654 390 622 468 q 660 224 686 311 l 442 371 q 430 400 435 388 q 418 422 425 413 q 401 438 411 432 q 374 446 392 443 q 301 467 328 453 q 269 495 275 481 q 275 524 263 510 q 319 546 288 538 q 390 595 365 557 q 417 679 414 633 q 402 767 421 725 q 342 829 383 810 q 332 832 336 832 q 305 814 318 832 q 281 773 292 796 q 263 727 271 750 q 253 694 256 704 z "},"4":{"ha":775,"x_min":11,"x_max":753,"o":"m 363 457 q 348 435 356 446 q 333 414 340 425 l 185 533 q 200 556 192 544 q 215 579 208 568 l 363 457 m 643 339 q 725 322 697 339 q 753 285 753 306 q 726 247 753 264 q 643 231 699 231 l 636 231 l 636 60 q 602 17 636 32 q 526 3 568 3 q 486 6 506 3 q 451 17 467 10 q 426 35 436 25 q 417 60 417 46 l 417 231 q 379 229 400 229 q 340 227 363 228 q 289 226 317 226 q 187 229 240 226 q 92 241 133 232 q 31 267 51 250 q 29 310 11 283 q 91 396 61 353 q 151 483 121 439 l 300 365 q 290 352 294 358 q 282 339 286 346 l 417 339 l 417 536 q 407 522 413 529 q 397 507 401 514 l 247 631 q 329 765 289 697 q 407 901 369 832 q 453 932 418 921 q 526 943 488 943 q 602 929 568 943 q 636 886 636 915 l 636 339 l 643 339 z "},"5":{"ha":732,"x_min":18,"x_max":713,"o":"m 231 981 l 599 983 q 685 966 657 983 q 711 927 713 949 q 681 888 710 906 q 599 871 651 871 l 408 871 l 231 981 m 322 682 q 523 660 444 688 q 644 586 601 633 q 695 476 686 539 q 689 348 704 414 q 637 218 674 282 q 549 104 600 154 q 438 24 499 54 q 314 -7 376 -7 q 159 52 235 -7 q 25 251 83 111 q 26 283 18 269 q 50 305 33 296 q 90 319 67 314 q 138 324 114 324 q 203 314 174 324 q 243 282 233 304 q 303 167 275 201 q 357 133 332 133 q 408 167 385 133 q 445 253 431 201 q 466 363 460 304 q 468 474 472 422 q 448 559 464 525 q 403 593 432 593 q 351 571 381 593 q 285 497 322 549 q 239 466 268 475 q 178 457 210 457 q 133 461 156 457 q 95 473 111 465 q 70 490 79 481 q 64 513 61 500 l 125 829 q 184 793 158 808 q 233 763 210 778 q 278 735 256 749 q 326 704 300 721 q 324 693 325 699 q 322 682 322 688 m 138 892 q 144 924 140 907 q 160 954 147 942 l 351 832 q 345 802 349 817 q 339 772 342 788 l 138 892 z "},"6":{"ha":719,"x_min":19,"x_max":700,"o":"m 225 910 q 382 942 293 942 q 473 931 428 942 q 555 898 518 921 q 616 840 592 875 q 646 756 640 804 q 638 733 647 743 q 613 715 629 722 q 577 705 597 708 q 536 701 557 701 q 464 715 497 701 q 428 756 431 728 q 413 804 425 782 q 379 826 401 826 q 354 818 369 826 l 225 910 m 118 826 q 171 879 142 856 l 300 786 q 311 778 308 781 q 297 756 304 767 q 283 735 290 746 l 118 826 m 381 99 q 430 130 408 99 q 464 208 451 161 q 478 311 476 256 q 469 414 481 367 q 433 492 458 461 q 364 521 407 522 q 299 488 324 519 q 265 410 275 457 q 257 308 254 363 q 275 208 260 254 q 317 130 290 161 q 381 99 344 99 m 246 618 q 308 633 278 629 q 368 638 339 638 q 499 612 439 638 q 602 543 558 586 q 671 444 646 500 q 698 328 696 388 q 676 208 700 268 q 597 97 651 149 q 477 24 549 49 q 335 -1 406 -1 q 247 10 292 -1 q 139 78 183 26 q 68 199 94 129 q 31 351 42 269 q 23 513 19 433 q 42 663 26 593 q 83 778 57 733 l 261 679 q 252 649 256 664 q 246 618 249 633 z "},"7":{"ha":747,"x_min":22,"x_max":726,"o":"m 429 271 q 410 164 418 218 q 392 57 401 110 q 353 13 386 26 q 279 0 319 0 q 235 4 257 0 q 197 15 214 8 q 172 33 181 22 q 164 57 163 44 q 192 221 179 138 q 228 383 204 304 l 429 271 m 613 972 q 643 970 624 972 q 681 962 663 968 q 713 944 700 956 q 726 915 726 933 q 714 867 726 899 q 681 799 701 836 q 637 719 661 761 q 589 638 613 676 q 545 565 565 599 q 514 511 525 532 l 335 613 q 408 735 369 675 q 478 858 447 794 l 136 858 q 51 876 79 858 q 22 915 22 894 q 51 954 22 936 q 136 972 79 972 l 613 972 m 486 456 q 463 396 474 425 q 444 335 451 367 l 249 444 q 275 502 263 476 q 304 558 288 528 l 486 456 z "},"8":{"ha":678,"x_min":18,"x_max":657,"o":"m 133 67 q 79 129 103 94 q 41 203 56 164 q 22 283 26 242 q 28 365 18 325 l 276 196 q 310 142 294 164 q 364 115 325 119 q 405 140 390 115 q 425 202 419 165 q 426 282 431 239 q 410 362 422 325 q 379 424 399 399 q 335 449 360 449 q 282 421 310 449 l 140 528 q 153 537 147 532 q 165 546 158 542 q 99 606 125 569 q 63 686 74 643 q 59 775 53 729 q 88 861 65 821 q 185 944 121 918 q 321 969 250 969 q 457 946 392 969 q 557 879 522 922 q 601 786 593 833 q 596 693 608 739 q 556 606 583 647 q 493 528 529 564 q 584 469 549 506 q 637 385 619 432 q 656 284 654 338 q 644 175 657 231 q 605 95 633 129 q 537 40 576 61 q 450 8 497 18 q 354 -3 403 -3 q 228 15 288 -3 q 133 67 169 33 m 338 617 q 364 638 354 618 q 377 687 374 658 q 378 748 381 715 q 367 806 375 781 q 345 844 358 831 q 314 850 332 858 q 296 823 301 843 q 290 777 290 803 q 293 723 289 751 q 303 671 297 694 q 319 632 310 647 q 338 617 328 617 m 54 431 q 93 485 72 461 l 256 363 q 248 324 249 343 q 247 286 247 306 l 54 431 z "},"9":{"ha":719,"x_min":19,"x_max":700,"o":"m 494 31 q 338 -1 426 -1 q 247 9 292 -1 q 165 42 201 19 q 103 101 128 65 q 74 185 79 136 q 106 225 72 211 q 183 239 140 239 q 256 226 222 239 q 292 185 289 213 q 306 136 294 158 q 340 114 318 114 q 365 122 351 114 l 494 31 m 601 114 q 549 61 578 85 l 419 154 q 408 163 411 160 q 422 184 415 174 q 436 206 429 194 l 601 114 m 339 842 q 290 810 311 842 q 256 732 268 779 q 241 629 243 685 q 250 526 239 574 q 287 449 261 479 q 356 419 313 418 q 420 452 396 421 q 455 531 444 483 q 463 632 465 578 q 444 733 460 686 q 402 810 429 779 q 339 842 375 842 m 474 322 q 411 307 442 311 q 351 303 381 303 q 221 328 281 303 q 117 397 161 354 q 49 497 74 440 q 22 613 24 553 q 44 732 19 672 q 122 843 68 792 q 242 917 171 892 q 385 942 314 942 q 472 931 428 942 q 581 863 536 914 q 651 741 625 811 q 689 589 678 671 q 697 427 700 507 q 678 277 693 347 q 636 163 663 207 l 458 261 q 467 292 464 276 q 474 322 471 307 z "},"\u0000":{"ha":0,"x_min":0,"x_max":0,"o":""},"\r":{"ha":347,"x_min":0,"x_max":0,"o":""}," ":{"ha":347,"x_min":0,"x_max":0,"o":""},"!":{"ha":243,"x_min":14,"x_max":229,"o":"m 122 261 q 56 287 82 261 q 29 353 29 313 l 29 881 q 56 947 29 921 q 122 972 82 972 q 188 947 163 972 q 214 881 214 921 l 214 353 q 188 287 214 313 q 122 261 163 261 m 176 185 q 220 122 211 163 q 206 46 229 82 q 168 12 190 24 q 121 0 146 0 q 67 17 92 0 q 22 80 31 39 q 38 156 14 121 q 74 190 51 178 q 122 201 97 201 q 176 185 151 201 z "},"\"":{"ha":465,"x_min":17,"x_max":444,"o":"m 347 968 q 416 940 388 968 q 444 871 444 911 l 444 865 q 439 823 444 847 q 420 774 433 799 q 385 728 407 750 q 328 694 363 707 q 303 690 318 690 q 262 703 281 690 q 235 738 243 715 q 235 784 226 761 q 263 822 243 807 q 249 871 249 846 q 278 940 249 911 q 347 968 307 968 m 138 972 q 206 944 178 972 q 235 875 235 915 l 235 869 q 229 827 235 851 q 210 778 224 803 q 175 733 197 754 q 118 699 153 711 q 93 694 108 694 q 52 707 71 694 q 25 742 33 719 q 25 788 17 765 q 53 826 33 811 q 39 875 39 850 q 68 944 39 915 q 138 972 97 972 z "},"#":{"ha":1147,"x_min":21,"x_max":1125,"o":"m 681 396 q 701 464 692 431 q 719 532 710 497 q 607 524 663 528 q 494 518 551 521 q 475 448 485 482 q 454 378 465 414 q 567 385 511 381 q 681 396 622 390 m 1046 764 q 1074 750 1060 764 q 1099 715 1088 736 q 1118 668 1111 693 q 1125 622 1125 643 q 1116 585 1125 600 q 1086 567 1107 569 q 1009 560 1047 564 q 932 553 971 556 q 914 484 924 518 q 894 417 904 450 q 917 419 906 418 q 943 421 929 419 q 972 407 957 421 q 997 372 986 393 q 1015 325 1008 350 q 1022 278 1022 300 q 1012 241 1021 257 q 982 224 1003 225 q 905 217 943 221 q 826 210 867 213 q 794 123 811 165 q 758 39 778 81 q 721 10 749 19 q 661 0 693 0 q 617 4 639 0 q 579 17 594 8 q 558 38 564 25 q 558 65 551 50 q 585 126 572 96 q 610 189 597 157 q 497 181 553 183 q 386 175 442 178 q 358 106 372 140 q 329 39 344 72 q 292 10 319 19 q 232 0 264 0 q 188 4 210 0 q 150 17 165 8 q 128 38 135 25 q 129 65 122 50 q 153 120 142 93 q 175 175 164 147 l 104 179 q 72 197 88 181 q 44 235 56 213 q 27 283 33 257 q 22 330 21 308 q 33 365 24 351 q 61 376 42 378 q 152 372 107 374 q 243 371 197 371 q 265 444 254 407 q 286 518 276 481 l 207 522 q 175 540 190 524 q 149 578 160 556 q 131 626 138 600 q 126 673 125 651 q 137 708 128 694 q 165 719 146 721 q 251 715 208 717 q 339 714 294 714 q 363 810 351 763 q 389 907 375 858 q 423 936 394 926 q 486 946 451 946 q 528 942 507 946 q 563 929 549 938 q 585 908 578 921 q 589 879 593 896 q 568 799 578 839 q 547 719 558 760 q 660 728 604 724 q 774 739 717 732 q 796 823 785 781 q 818 907 807 865 q 852 936 824 926 q 915 946 881 946 q 957 942 936 946 q 992 929 978 938 q 1015 908 1007 921 q 1018 879 1022 896 q 1001 819 1010 849 q 986 758 993 789 q 1016 761 1001 760 q 1046 764 1031 763 z "},"$":{"ha":797,"x_min":15,"x_max":782,"o":"m 446 163 q 481 218 469 186 q 492 285 493 250 q 480 354 492 321 q 446 413 468 388 l 446 575 q 522 555 482 564 q 589 531 561 546 q 691 449 653 499 q 742 345 729 400 q 742 233 754 290 q 693 129 731 176 q 594 49 656 82 q 446 8 532 17 l 446 163 m 85 660 q 90 780 69 725 q 154 875 110 835 q 262 939 199 915 q 394 967 325 963 l 394 828 q 386 822 390 825 q 376 814 382 818 q 343 763 354 793 q 333 702 332 733 q 348 643 335 671 q 388 599 361 615 q 391 597 390 597 q 394 594 392 596 l 394 447 q 306 474 354 464 q 217 504 257 485 q 133 566 168 528 q 85 660 99 604 m 393 139 q 394 138 394 139 l 394 6 q 375 6 385 6 q 354 7 365 7 q 238 35 288 13 q 149 93 188 57 q 81 177 111 129 q 25 281 51 225 q 27 319 15 303 q 63 345 39 335 q 119 359 88 356 q 182 359 151 363 q 238 344 213 356 q 271 314 263 333 q 294 267 282 292 q 320 218 306 242 q 353 174 335 194 q 393 139 371 153 m 454 824 q 446 829 449 826 l 446 967 q 624 919 538 961 q 769 786 711 876 q 772 753 782 768 q 740 726 763 738 q 686 708 717 714 q 624 705 656 703 q 565 718 593 707 q 524 753 538 729 q 492 791 508 772 q 454 824 476 810 m 418 436 q 394 447 406 443 l 394 138 q 400 135 397 138 l 401 135 q 404 136 403 135 q 414 139 413 139 q 431 150 422 144 q 446 163 439 156 l 446 413 q 418 436 433 426 m 418 839 q 411 838 415 838 q 394 828 403 835 l 394 594 q 418 584 406 589 q 446 575 431 579 l 446 829 q 437 833 442 832 q 429 838 432 835 l 426 838 l 425 838 q 422 839 424 839 l 418 839 m 446 8 q 421 6 433 7 q 394 6 408 6 l 394 -93 l 446 -93 l 446 8 m 394 967 q 446 967 419 968 l 446 1042 l 394 1042 l 394 967 m 411 838 l 411 838 l 411 838 l 411 838 m 401 135 l 401 135 l 401 135 l 403 135 l 401 135 m 403 136 l 401 135 l 400 135 q 403 136 403 136 m 403 132 q 401 135 403 135 l 404 135 l 404 132 l 403 132 z "},"%":{"ha":928,"x_min":21,"x_max":907,"o":"m 578 911 q 615 939 589 931 q 674 947 642 947 q 719 943 697 947 q 756 931 740 939 q 778 910 772 922 q 776 883 785 899 l 314 61 q 276 33 303 42 q 218 25 250 25 q 174 30 196 25 q 136 43 151 35 q 115 63 121 51 q 117 89 108 75 l 578 911 m 358 725 q 345 637 358 678 q 309 565 332 596 q 256 515 286 533 q 189 497 225 497 q 124 515 154 497 q 70 565 93 533 q 34 637 47 596 q 21 725 21 678 q 34 814 21 772 q 70 886 47 856 q 124 935 93 917 q 189 953 154 953 q 256 935 225 953 q 309 886 286 917 q 345 814 332 856 q 358 725 358 772 m 907 264 q 894 175 907 217 q 858 103 881 133 q 803 54 835 72 q 738 36 772 36 q 672 54 703 36 q 619 103 642 72 q 583 175 596 133 q 569 264 569 217 q 583 352 569 311 q 619 424 596 393 q 672 472 642 454 q 738 490 703 490 q 803 472 772 490 q 858 424 835 454 q 894 352 881 393 q 907 264 907 311 z "},"&":{"ha":742,"x_min":15,"x_max":724,"o":"m 282 340 q 213 285 232 322 q 201 210 194 247 q 234 144 207 172 q 300 117 261 117 q 357 133 326 117 q 419 185 388 149 q 351 263 385 224 q 282 340 317 301 m 264 800 q 250 742 250 774 q 260 681 250 711 q 286 621 269 650 q 321 567 303 592 q 361 644 350 596 q 369 738 372 692 q 352 817 367 783 q 315 850 338 850 q 264 800 290 850 m 708 103 q 720 72 724 86 q 701 49 717 58 q 663 34 686 39 q 615 29 639 29 q 569 35 590 29 q 536 53 547 40 l 521 69 q 410 15 467 32 q 301 -1 354 -1 q 186 18 240 -1 q 93 72 132 38 q 35 151 54 106 q 22 247 15 196 q 68 351 29 297 q 183 457 107 406 q 121 550 153 497 q 71 660 89 603 q 57 773 53 717 q 104 875 61 829 q 192 931 140 913 q 301 949 243 949 q 385 939 343 949 q 462 909 426 929 q 524 860 497 889 q 565 792 551 831 q 579 684 585 733 q 549 592 574 635 q 488 514 525 550 q 408 446 451 478 q 448 400 428 422 q 489 354 468 378 l 500 340 q 506 359 503 350 q 514 376 510 368 q 547 406 521 396 q 606 415 574 415 q 647 411 626 415 q 683 399 668 407 q 704 378 697 390 q 706 350 711 367 q 674 267 692 308 q 633 189 657 226 l 708 103 z "},"'":{"ha":256,"x_min":17,"x_max":235,"o":"m 138 972 q 206 944 178 972 q 235 875 235 915 l 235 869 q 229 827 235 851 q 210 778 224 803 q 175 733 197 754 q 118 699 153 711 q 93 694 108 694 q 52 707 71 694 q 25 742 33 719 q 25 788 17 765 q 53 826 33 811 q 39 875 39 850 q 68 944 39 915 q 138 972 97 972 z "},"(":{"ha":376,"x_min":19,"x_max":358,"o":"m 350 -139 q 353 -169 358 -154 q 333 -194 347 -183 q 297 -213 318 -206 q 251 -221 275 -221 q 201 -210 225 -221 q 161 -174 176 -199 q 52 90 85 -51 q 21 378 19 231 q 53 672 22 525 q 132 951 83 818 q 166 986 140 975 q 222 997 192 997 q 264 992 243 997 q 299 976 285 986 q 321 952 314 967 q 321 918 328 938 q 247 654 275 792 q 217 378 218 517 q 247 108 215 240 q 350 -139 278 -24 z "},")":{"ha":376,"x_min":18,"x_max":357,"o":"m 26 -139 q 130 108 99 -24 q 160 378 161 240 q 130 654 158 517 q 56 918 101 792 q 56 952 49 938 q 77 976 63 967 q 113 992 92 986 q 154 997 133 997 q 210 986 185 997 q 244 951 236 975 q 324 672 293 818 q 356 378 354 525 q 324 90 357 231 q 215 -174 292 -51 q 176 -210 200 -199 q 125 -221 151 -221 q 81 -213 103 -221 q 44 -194 58 -206 q 24 -169 29 -183 q 26 -139 18 -154 z "},"*":{"ha":599,"x_min":21,"x_max":578,"o":"m 367 840 l 578 840 l 407 715 l 471 511 l 300 638 l 128 511 l 193 715 l 21 840 l 235 840 l 300 1042 l 367 840 z "},"+":{"ha":972,"x_min":22,"x_max":950,"o":"m 801 543 q 913 520 875 543 q 950 469 950 497 q 913 417 950 440 q 801 394 876 394 l 651 394 l 651 186 q 638 155 651 168 q 602 132 624 142 q 552 117 581 122 q 494 113 524 113 q 443 117 468 113 q 398 131 418 121 q 366 154 378 140 q 354 186 354 168 l 354 394 l 171 394 q 59 417 96 394 q 22 469 22 440 q 59 520 22 497 q 171 543 96 543 l 354 543 l 354 779 q 368 810 354 797 q 403 833 382 824 q 453 847 425 842 q 510 851 481 851 q 563 847 538 851 q 608 834 588 843 q 640 812 628 825 q 651 779 651 799 l 651 543 l 801 543 z "},",":{"ha":372,"x_min":1,"x_max":317,"o":"m 203 174 q 283 140 250 174 q 317 58 317 107 l 317 53 q 310 3 317 32 q 289 -53 304 -25 q 247 -108 274 -82 q 181 -147 221 -133 q 151 -153 169 -153 q 102 -137 124 -153 q 71 -97 81 -122 q 70 -42 61 -69 q 103 1 79 -14 q 88 58 88 29 q 121 140 88 107 q 203 174 154 174 m 1 49 l 1 49 l 1 49 z "},"-":{"ha":596,"x_min":21,"x_max":575,"o":"m 425 421 q 538 398 501 421 q 574 348 575 375 q 536 298 574 321 q 425 275 499 275 l 171 275 q 60 298 97 275 q 22 348 22 321 q 58 398 21 375 q 171 421 96 421 l 425 421 z "},".":{"ha":293,"x_min":14,"x_max":274,"o":"m 215 156 q 250 121 236 142 q 269 76 264 100 q 269 28 274 53 q 251 -18 265 4 q 207 -60 235 -44 q 147 -75 179 -75 q 79 -54 108 -75 q 24 24 35 -26 q 42 118 14 74 q 88 160 60 146 q 149 175 117 175 q 215 156 185 175 z "},"/":{"ha":546,"x_min":18,"x_max":528,"o":"m 485 946 q 511 928 494 942 q 524 900 528 915 q 411 471 471 683 q 281 46 351 258 q 254 17 275 26 q 208 2 233 7 q 158 -2 182 -3 q 118 0 133 -1 q 83 8 101 3 q 49 22 64 13 q 26 47 33 32 q 25 82 18 61 q 258 900 158 488 q 278 933 264 921 q 312 953 293 946 q 352 964 331 961 q 392 967 374 967 q 440 962 414 967 q 485 946 465 957 z "},":":{"ha":292,"x_min":19,"x_max":279,"o":"m 214 228 q 267 150 257 200 q 250 57 278 100 q 206 15 233 29 q 146 0 178 0 q 78 19 110 0 q 43 54 57 33 q 24 99 29 75 q 24 147 19 122 q 42 192 28 171 q 147 249 79 249 q 214 228 183 249 m 268 608 q 250 515 279 557 q 206 473 233 488 q 146 458 178 458 q 78 478 110 458 q 43 513 57 492 q 24 556 29 533 q 24 603 19 579 q 42 650 28 628 q 86 692 58 676 q 144 707 114 707 q 224 679 189 707 q 268 608 258 651 z "},";":{"ha":325,"x_min":18,"x_max":311,"o":"m 246 679 q 300 601 289 653 q 283 507 311 549 q 204 453 256 464 q 191 450 197 450 q 178 450 185 450 q 99 478 133 450 q 56 549 65 506 q 74 643 44 601 q 119 685 92 671 q 179 700 147 700 q 246 679 217 700 m 172 238 q 262 201 225 238 q 299 111 299 164 l 299 103 q 292 49 299 81 q 268 -13 285 18 q 222 -72 251 -44 q 149 -117 193 -100 q 114 -124 128 -124 q 60 -105 83 -124 q 28 -60 38 -86 q 26 -3 18 -33 q 63 47 33 26 q 46 111 46 76 q 56 160 46 138 q 83 201 65 183 q 123 228 100 218 q 172 238 146 238 z "},"<":{"ha":796,"x_min":21,"x_max":778,"o":"m 729 290 q 774 246 771 268 q 757 206 778 224 q 699 178 736 189 q 619 167 661 167 q 568 172 593 167 q 522 188 543 176 q 292 315 407 251 q 64 442 178 378 q 21 493 21 464 q 64 544 21 522 q 286 668 176 604 q 504 799 396 732 q 547 815 522 810 q 599 819 571 819 q 676 810 639 819 q 735 783 714 800 q 755 744 757 767 q 711 696 753 722 q 538 592 625 642 q 363 493 451 542 q 546 392 454 442 q 729 290 638 342 z "},"=":{"ha":999,"x_min":21,"x_max":978,"o":"m 796 763 q 847 759 817 763 q 904 746 876 756 q 953 718 932 736 q 976 672 974 700 q 972 653 978 663 q 958 635 967 643 q 940 620 950 626 q 924 610 931 614 q 862 589 896 594 q 796 583 828 583 l 201 583 q 151 587 181 583 q 94 600 122 590 q 46 627 67 610 q 22 672 25 644 q 26 693 21 683 q 40 711 32 703 q 58 726 49 719 q 75 736 67 732 q 136 757 103 751 q 201 763 169 763 l 796 763 m 796 401 q 847 398 817 401 q 904 385 876 394 q 953 358 932 375 q 976 313 974 340 q 972 292 978 301 q 958 274 967 282 q 940 259 950 265 q 924 249 931 253 q 862 228 896 233 q 796 222 828 222 l 201 222 q 151 226 181 222 q 94 239 122 229 q 46 267 67 249 q 22 313 25 285 q 26 333 21 324 q 40 350 32 342 q 58 365 49 358 q 75 375 67 371 q 136 396 103 390 q 201 401 169 401 l 796 401 z "},">":{"ha":796,"x_min":18,"x_max":775,"o":"m 67 290 q 250 392 158 342 q 433 493 342 442 q 258 592 344 542 q 85 696 171 642 q 41 744 43 722 q 60 783 39 767 q 120 810 82 800 q 197 819 158 819 q 249 815 225 819 q 292 799 274 810 q 510 668 400 732 q 732 544 619 604 q 775 493 775 522 q 732 442 775 464 q 503 315 618 378 q 274 188 389 251 q 228 172 253 176 q 176 167 203 167 q 97 178 135 167 q 39 206 60 189 q 22 246 18 224 q 67 290 25 268 z "},"?":{"ha":581,"x_min":18,"x_max":560,"o":"m 25 749 q 69 842 42 803 q 133 906 97 881 q 208 942 168 931 q 290 954 249 954 q 422 924 360 954 q 522 840 485 894 q 559 712 558 786 q 504 547 560 638 q 474 503 493 528 q 440 454 456 479 q 414 404 424 429 q 410 356 404 379 q 412 308 418 329 q 392 272 406 288 q 357 249 378 257 q 315 240 336 240 q 264 256 288 240 q 231 307 240 271 q 226 410 217 361 q 258 502 236 458 q 306 584 279 546 q 351 653 332 622 q 374 708 369 685 q 356 749 378 732 q 300 769 331 769 q 242 749 268 769 q 204 697 215 729 q 170 647 194 663 q 118 631 146 631 q 77 639 97 631 q 43 663 57 647 q 24 701 29 679 q 25 749 18 722 m 368 186 q 413 122 404 163 q 399 46 422 82 q 362 13 385 25 q 314 0 339 0 q 258 17 283 0 q 214 80 222 39 q 229 156 206 121 q 265 190 242 178 q 314 203 288 203 q 342 198 329 203 q 368 186 356 193 z "},"@":{"ha":1047,"x_min":17,"x_max":1033,"o":"m 413 532 q 399 432 399 472 q 410 368 400 392 q 436 335 419 344 q 471 325 453 325 q 522 341 499 325 q 549 375 546 357 q 551 428 551 403 q 556 482 551 454 q 567 536 561 510 q 582 588 574 563 q 578 608 585 593 q 561 638 572 622 q 534 665 550 653 q 501 676 518 676 q 454 645 478 676 q 413 532 431 614 m 658 958 q 882 882 800 942 q 999 742 964 822 q 1025 574 1033 663 q 978 410 1017 485 q 874 288 939 336 q 732 239 810 239 q 610 272 672 239 q 530 244 569 253 q 453 236 490 236 q 351 256 397 236 q 275 317 304 276 q 238 416 246 357 q 253 554 231 475 q 288 642 264 603 q 345 710 313 682 q 418 754 378 739 q 501 769 458 769 q 644 726 575 769 q 675 746 654 740 q 719 751 696 751 q 756 748 739 751 q 785 738 774 744 q 803 723 797 732 q 801 701 808 714 q 741 556 764 631 q 714 403 718 482 q 713 388 714 399 q 713 367 713 378 q 717 346 714 356 q 725 336 719 336 q 795 379 763 336 q 845 486 828 422 q 859 624 863 550 q 821 758 856 697 q 714 854 786 818 q 522 879 642 890 q 352 807 422 869 q 242 656 282 744 q 192 467 201 567 q 206 281 183 367 q 282 140 228 196 q 422 83 336 83 q 546 110 479 83 q 608 122 582 122 q 653 114 635 122 q 680 94 672 106 q 684 70 688 82 q 663 51 681 58 q 421 -1 532 -1 q 240 40 317 -1 q 112 149 163 82 q 39 303 61 217 q 23 481 17 390 q 65 659 29 572 q 168 813 101 746 q 333 922 235 881 q 561 964 431 964 q 609 963 585 964 q 658 958 633 961 z "},"A":{"ha":990,"x_min":18,"x_max":972,"o":"m 269 121 l 233 35 q 199 9 226 17 q 138 1 171 1 q 91 6 114 1 q 51 17 68 10 q 26 34 35 24 q 24 58 18 44 l 94 226 l 269 121 m 338 289 l 290 172 l 115 278 l 161 392 l 338 289 m 967 58 q 965 34 972 44 q 940 17 957 24 q 901 6 924 10 q 854 1 878 1 q 792 9 821 1 q 757 35 764 17 l 683 213 l 524 213 q 448 245 478 213 q 415 322 418 278 q 424 363 414 342 q 447 399 433 385 q 524 431 479 431 l 594 431 l 496 671 l 358 339 l 183 443 l 376 914 q 420 941 385 932 q 497 950 456 950 q 572 941 538 950 q 614 914 607 932 l 967 58 z "},"B":{"ha":764,"x_min":21,"x_max":750,"o":"m 26 300 l 232 190 l 232 43 q 200 10 232 21 q 131 -1 168 -1 q 58 10 90 -1 q 26 43 26 21 l 26 300 m 232 326 l 232 247 l 26 357 l 26 446 l 232 326 m 725 804 q 739 697 750 754 q 692 597 728 639 q 621 539 660 563 q 539 497 582 515 q 600 457 572 481 q 648 404 628 433 q 678 340 668 375 q 686 267 689 306 q 651 164 682 208 q 576 90 621 119 q 477 44 532 60 q 369 29 422 29 q 339 31 358 29 q 301 36 319 32 q 269 49 282 40 q 256 71 256 57 q 276 98 257 90 q 311 108 296 106 q 376 123 347 115 q 432 158 406 131 q 468 214 456 182 q 482 278 481 246 q 472 336 482 306 q 443 392 461 367 q 401 435 425 418 q 350 454 378 453 q 311 462 336 456 q 279 483 286 468 q 282 508 272 499 q 306 524 292 518 q 406 560 354 539 q 494 619 458 581 q 546 710 540 671 q 531 778 551 750 q 468 820 510 806 q 375 836 426 835 q 303 838 339 838 q 232 842 268 839 l 232 385 l 26 503 l 21 869 q 40 899 21 886 q 92 919 60 911 q 169 932 125 928 q 264 936 214 936 q 408 928 333 936 q 548 903 483 919 q 660 863 613 888 q 725 804 708 838 z "},"C":{"ha":836,"x_min":21,"x_max":815,"o":"m 614 301 q 646 333 617 324 q 711 343 675 343 q 750 340 731 343 q 784 332 769 338 q 807 319 799 326 q 814 301 815 311 q 771 173 806 229 q 683 78 736 117 q 564 19 629 39 q 431 0 499 0 q 322 12 376 0 q 218 47 267 24 q 131 108 169 71 q 68 197 92 146 q 47 258 54 226 q 35 321 39 289 l 264 215 q 294 169 276 193 q 333 125 311 144 q 381 93 356 106 q 432 81 406 81 q 500 103 468 81 q 556 160 532 126 q 594 232 579 193 q 614 301 610 271 m 229 381 q 235 329 232 356 q 243 278 238 303 l 28 378 q 26 406 26 392 q 24 433 25 419 q 22 467 22 450 q 21 499 21 483 l 229 381 m 808 642 q 806 619 813 628 q 788 604 800 610 q 761 596 775 599 q 738 592 747 593 q 724 590 731 590 q 711 590 718 590 q 685 592 699 590 q 660 596 672 593 q 650 599 657 597 q 635 604 643 601 q 622 611 628 607 q 614 619 615 615 q 587 678 606 647 q 543 735 568 708 q 488 780 518 763 q 425 797 457 797 q 354 777 388 797 q 294 726 321 757 q 251 659 268 696 q 226 589 233 622 q 220 515 219 553 q 224 442 221 478 l 24 557 q 64 695 29 635 q 153 797 99 756 q 278 860 208 839 q 424 882 349 882 q 546 867 486 882 q 657 822 606 851 q 748 747 708 792 q 808 642 788 701 z "},"D":{"ha":826,"x_min":21,"x_max":815,"o":"m 21 289 l 231 169 l 231 44 q 198 11 231 22 q 126 0 165 0 q 53 11 86 0 q 21 44 21 22 l 21 289 m 231 340 l 231 231 l 21 349 l 21 454 l 231 340 m 796 581 q 792 389 815 481 q 715 223 769 297 q 581 96 661 149 q 407 19 501 43 q 347 13 379 13 q 301 17 324 13 q 264 35 279 22 q 251 55 250 46 q 259 71 251 64 q 279 83 267 78 q 301 92 292 89 q 433 155 375 110 q 528 261 490 200 q 583 395 567 322 q 593 540 600 468 q 548 692 585 618 q 443 808 511 765 q 340 847 394 840 q 231 851 286 854 l 231 396 l 21 513 l 21 825 q 22 864 21 846 q 30 897 24 882 q 49 922 36 913 q 86 936 63 932 q 158 944 122 942 q 232 946 194 946 q 420 928 328 946 q 589 869 513 911 q 720 758 665 828 q 796 581 775 688 z "},"E":{"ha":765,"x_min":21,"x_max":746,"o":"m 638 175 q 717 147 693 175 q 740 86 742 119 q 710 25 738 53 q 638 -3 683 -3 l 314 -3 q 256 -4 285 -3 q 199 -6 228 -6 q 140 -2 169 -6 q 83 11 111 1 q 51 27 68 17 q 28 53 35 38 q 22 89 21 69 q 24 126 24 108 l 24 365 l 229 253 l 229 175 l 638 175 m 601 539 q 678 515 651 539 q 705 464 704 492 q 680 413 706 436 q 601 389 654 389 l 229 389 l 229 313 l 24 424 l 24 736 l 229 601 l 229 539 l 601 539 m 47 913 q 94 933 61 925 q 170 944 126 940 q 265 951 214 949 q 368 953 317 953 q 468 951 419 953 q 554 949 517 950 q 615 946 592 947 q 640 944 639 944 q 713 917 686 944 q 742 856 739 889 q 722 794 746 822 q 640 767 697 767 l 231 767 l 231 663 q 186 689 219 669 q 117 732 153 708 q 53 779 81 756 q 26 818 25 803 q 26 869 28 844 q 47 913 25 893 z "},"F":{"ha":788,"x_min":19,"x_max":764,"o":"m 239 146 l 239 46 q 206 13 239 24 q 135 1 174 1 q 62 13 94 1 q 29 46 29 24 l 29 261 l 239 146 m 239 314 l 239 203 l 29 324 l 29 424 l 239 314 m 660 958 q 737 930 711 958 q 763 867 763 901 q 738 803 764 832 q 660 775 713 775 l 239 775 l 239 561 l 468 561 q 543 533 517 561 q 572 469 569 504 q 549 406 574 435 q 468 378 524 378 l 239 378 l 29 489 l 29 661 q 28 725 29 693 q 25 789 26 757 q 22 847 25 817 q 35 904 19 878 q 65 935 46 925 q 105 951 83 946 q 150 958 126 957 q 193 958 174 958 l 660 958 z "},"G":{"ha":894,"x_min":21,"x_max":874,"o":"m 874 331 q 873 309 874 319 q 871 288 872 299 q 818 162 858 217 q 720 70 778 107 q 594 15 663 33 q 460 -4 526 -4 q 343 8 401 -4 q 233 47 285 21 q 139 113 181 72 q 72 207 97 153 q 36 340 44 272 l 283 224 q 313 176 294 201 q 355 131 332 151 q 405 96 378 110 q 460 82 432 82 q 537 111 500 82 q 597 169 574 140 q 638 241 624 201 q 654 321 651 281 q 655 335 654 324 q 655 358 656 346 q 652 380 654 371 q 643 388 650 389 l 522 361 q 496 362 514 360 q 460 369 478 364 q 429 383 443 375 q 415 404 415 392 q 427 424 415 417 q 446 435 439 431 q 540 465 490 456 q 638 475 589 475 q 695 472 663 475 q 759 463 728 469 q 817 442 790 456 q 858 404 844 428 q 871 370 868 389 q 874 331 874 351 m 244 406 q 250 349 247 378 q 260 293 253 321 l 28 401 q 26 431 26 417 q 24 461 25 446 q 22 497 22 479 q 21 531 21 514 l 244 406 m 867 685 q 865 660 872 671 q 844 644 857 650 q 817 635 832 638 q 792 632 803 632 q 707 635 751 626 q 681 644 700 638 q 658 661 661 651 q 628 726 649 692 q 581 788 608 760 q 519 835 553 817 q 450 854 486 854 q 376 831 411 854 q 313 774 340 808 q 267 700 285 739 q 242 628 249 661 q 235 549 235 589 q 239 469 236 510 l 24 593 q 67 743 29 678 q 163 853 104 808 q 297 920 222 897 q 453 943 372 943 q 584 926 519 943 q 704 878 649 910 q 802 797 760 846 q 867 685 844 749 z "},"H":{"ha":803,"x_min":21,"x_max":782,"o":"m 21 256 q 127 192 74 224 q 233 128 181 160 l 233 47 q 201 13 233 24 q 128 1 168 1 q 89 4 108 1 q 54 13 69 7 q 30 27 39 18 q 21 47 21 36 l 21 256 m 233 300 l 233 199 l 21 315 l 21 414 l 233 300 m 233 358 l 21 478 l 21 897 q 54 932 21 921 q 128 943 88 943 q 201 932 168 943 q 233 897 233 921 l 233 358 m 568 897 q 577 917 568 908 q 601 932 586 926 q 636 940 617 938 q 675 943 656 943 q 749 932 715 943 q 782 897 782 921 l 782 47 q 749 13 782 24 q 676 1 717 1 q 602 13 636 1 q 568 47 568 24 l 568 385 l 367 385 q 292 416 322 385 q 260 492 263 447 q 267 533 258 514 q 292 566 276 551 q 326 589 307 581 q 367 597 346 597 l 568 597 l 568 897 z "},"I":{"ha":254,"x_min":21,"x_max":233,"o":"m 21 897 q 54 932 21 921 q 128 943 88 943 q 201 932 168 943 q 233 897 233 921 l 233 350 l 21 494 l 21 897 m 21 428 l 233 290 l 233 201 l 21 336 l 21 428 m 21 274 l 233 136 l 233 47 q 201 13 233 24 q 128 1 168 1 q 54 13 88 1 q 21 47 21 24 l 21 274 z "},"J":{"ha":626,"x_min":18,"x_max":604,"o":"m 590 521 l 376 653 q 381 770 379 711 q 385 888 382 829 q 423 925 386 913 q 503 938 460 938 q 574 927 543 938 q 604 896 604 917 l 590 521 m 589 460 q 587 400 588 429 q 585 340 586 371 l 371 492 l 374 588 l 589 460 m 582 275 q 576 206 581 240 q 561 139 572 172 q 523 75 547 101 q 467 32 499 49 q 398 8 435 15 q 324 0 361 0 q 217 15 263 0 q 135 60 171 31 q 74 133 100 90 q 24 231 47 176 q 25 256 18 246 q 45 272 32 265 q 74 282 58 278 q 99 288 89 286 q 142 290 119 290 q 183 285 164 289 q 211 277 192 282 q 235 261 231 272 q 263 193 249 226 q 297 129 278 160 q 310 114 303 121 q 328 108 317 107 q 353 126 346 108 q 363 158 361 143 q 368 289 367 232 q 370 338 369 314 q 371 381 371 363 q 370 412 371 400 q 368 424 369 424 l 582 275 z "},"K":{"ha":801,"x_min":21,"x_max":786,"o":"m 21 288 l 233 167 l 233 46 q 201 11 233 22 q 128 0 168 0 q 89 3 108 0 q 54 11 69 6 q 30 26 39 17 q 21 46 21 35 l 21 288 m 233 351 l 233 225 l 21 351 l 21 469 l 233 351 m 775 67 q 778 44 786 54 q 755 28 769 35 q 724 19 740 22 q 701 15 708 15 q 669 13 688 14 q 631 15 650 13 q 597 25 613 18 q 571 44 581 32 l 271 425 l 243 406 l 21 533 l 21 896 q 53 931 21 919 q 126 942 86 942 q 165 939 146 942 q 200 931 185 936 q 224 916 215 925 q 233 896 233 907 l 233 622 q 368 760 301 692 q 503 899 435 829 q 546 924 521 918 q 597 929 571 929 q 650 926 621 929 q 697 908 679 922 q 710 894 704 904 q 708 876 715 885 q 551 714 629 794 q 393 551 472 633 q 584 309 489 429 q 775 67 679 189 z "},"L":{"ha":769,"x_min":19,"x_max":749,"o":"m 643 208 q 683 200 664 208 q 716 178 701 192 q 740 145 731 164 q 747 106 749 126 q 716 32 744 63 q 643 1 688 1 l 635 1 q 485 -1 560 1 q 333 -4 410 -4 q 229 -2 281 -4 q 126 7 178 0 q 44 44 69 14 q 22 131 19 74 q 22 173 24 151 q 21 215 21 194 l 21 401 l 229 297 l 229 208 l 643 208 m 229 490 l 21 601 l 21 899 q 53 933 21 922 q 125 943 86 943 q 197 933 165 943 q 229 899 229 922 l 229 490 m 229 433 l 229 356 l 21 460 l 21 539 l 229 433 z "},"M":{"ha":957,"x_min":21,"x_max":936,"o":"m 238 60 l 238 46 q 228 26 238 35 q 204 11 219 17 q 169 3 189 6 q 131 0 150 0 q 55 11 89 0 q 21 46 21 22 l 21 226 l 238 60 m 231 246 q 233 244 232 244 q 238 243 235 244 l 238 126 l 21 289 l 21 388 l 231 246 m 824 956 q 856 954 836 956 q 892 948 875 953 q 923 934 910 943 q 936 910 936 925 l 936 46 q 902 11 936 22 q 828 0 868 0 q 753 11 788 0 q 719 46 719 22 l 719 446 q 654 268 685 357 q 596 88 624 179 q 586 56 592 71 q 564 33 581 40 q 525 20 549 24 q 478 17 501 17 q 432 20 454 17 q 393 33 410 24 q 374 51 379 40 q 364 75 368 61 q 358 97 361 86 q 351 118 354 107 q 297 285 326 201 q 283 326 290 306 q 268 367 275 346 q 260 388 264 378 q 253 407 257 397 l 244 429 q 240 438 242 432 q 238 446 238 443 l 238 306 l 21 458 l 21 910 q 29 929 21 921 q 53 944 39 940 q 81 951 67 949 q 124 956 101 956 q 191 949 160 956 q 242 908 222 943 q 257 882 250 896 q 271 854 264 868 q 356 680 315 767 q 432 501 397 593 q 444 472 439 486 q 457 442 450 457 q 468 411 461 428 l 474 396 q 477 389 475 393 q 479 382 479 385 q 581 633 525 510 q 699 876 636 756 q 747 939 719 922 q 824 956 774 956 z "},"N":{"ha":861,"x_min":21,"x_max":840,"o":"m 236 104 l 236 50 q 203 15 236 26 q 131 4 171 4 q 56 15 90 4 q 22 50 22 26 l 22 229 l 236 104 m 236 271 l 236 164 l 22 296 l 22 390 l 236 271 m 628 899 q 661 933 628 922 q 735 944 694 944 q 808 933 775 944 q 840 899 840 922 l 840 50 q 828 28 840 38 q 795 10 815 18 q 751 -1 775 3 q 701 -4 726 -4 q 644 3 669 -4 q 608 25 618 10 l 236 610 l 236 329 l 24 453 l 21 861 q 22 883 21 872 q 28 904 22 894 q 65 937 36 926 q 129 947 94 947 q 191 938 161 947 q 233 914 221 929 l 628 353 l 628 899 z "},"O":{"ha":889,"x_min":21,"x_max":868,"o":"m 219 424 q 224 369 221 396 q 233 315 226 342 l 22 425 q 22 431 22 428 q 21 438 21 435 q 25 513 21 475 l 219 424 m 757 768 q 844 614 819 703 q 867 438 868 525 q 837 260 865 342 q 754 121 808 179 q 622 30 700 63 q 444 -3 543 -3 q 285 23 357 -3 q 159 97 213 49 q 72 215 106 146 q 26 368 38 283 l 253 251 q 284 194 265 224 q 326 140 303 164 q 379 100 350 115 q 442 85 408 85 q 532 116 490 85 q 600 186 574 147 q 653 306 638 242 q 669 438 668 371 q 657 573 671 506 q 604 699 643 640 q 533 774 578 742 q 439 806 489 806 q 391 797 414 806 q 349 772 368 788 q 313 738 329 757 q 283 699 296 718 q 237 592 251 650 q 219 476 222 535 l 32 564 q 82 703 46 643 q 172 806 118 764 q 296 869 226 847 q 444 890 365 890 q 615 860 532 890 q 757 768 699 831 z "},"P":{"ha":815,"x_min":21,"x_max":800,"o":"m 21 886 q 94 940 28 921 q 257 960 161 960 q 384 951 318 960 q 513 924 450 943 q 632 877 576 906 q 726 808 688 849 q 783 715 765 768 q 789 597 800 663 q 745 493 778 538 q 665 420 713 449 q 562 378 618 392 q 449 364 506 364 q 392 367 421 364 q 338 378 364 371 q 315 386 328 381 q 294 399 303 392 q 285 417 286 407 q 299 436 285 426 q 330 451 314 447 q 363 456 346 456 q 394 453 378 456 q 426 451 410 451 q 489 467 460 451 q 538 510 518 483 q 578 613 571 554 q 565 722 586 672 q 526 788 549 763 q 474 828 503 813 q 413 849 446 843 q 343 854 379 854 q 294 852 319 854 q 244 847 269 850 q 245 620 244 733 q 246 394 246 507 l 38 508 q 34 517 35 513 q 33 526 33 522 l 21 886 m 31 360 l 31 449 l 244 332 l 244 257 l 31 360 m 31 297 l 244 200 l 244 44 q 212 10 244 21 q 139 -1 179 -1 q 65 10 99 -1 q 31 44 31 21 l 31 297 z "},"Q":{"ha":957,"x_min":21,"x_max":940,"o":"m 932 54 q 933 33 940 42 q 912 17 925 24 q 883 8 899 11 q 861 4 868 6 q 838 1 850 1 q 813 1 825 1 q 744 8 778 1 q 679 28 710 14 q 665 37 672 31 q 650 43 658 43 q 600 28 625 35 q 556 16 579 21 q 514 10 532 11 q 485 8 499 8 q 456 7 471 7 q 172 99 283 7 q 31 360 60 192 l 263 264 q 293 206 275 236 q 335 151 311 176 q 390 110 360 126 q 453 93 419 93 q 490 97 472 93 q 503 102 493 97 q 525 112 514 107 q 544 122 536 117 q 551 126 553 126 q 515 162 533 146 q 478 193 497 178 q 446 204 464 203 q 411 208 428 206 q 385 217 400 211 q 364 233 371 222 q 363 256 356 246 q 384 271 371 265 q 413 280 397 276 q 435 283 428 283 q 454 285 444 285 q 474 285 464 285 q 546 278 510 285 q 615 254 582 272 q 628 247 622 251 q 642 239 635 243 q 678 346 668 290 q 690 458 689 401 q 678 599 692 529 q 624 729 664 668 q 551 806 596 774 q 453 839 506 839 q 404 829 428 839 q 360 804 381 819 q 322 769 339 789 q 292 729 304 749 q 244 618 258 676 q 226 499 229 560 l 33 592 q 87 735 50 674 q 179 840 124 797 q 305 905 235 883 q 458 926 375 926 q 635 895 550 926 q 782 801 721 864 q 835 727 814 768 q 870 641 857 686 q 889 549 883 596 q 894 458 894 503 q 865 279 893 368 q 772 125 838 190 q 783 115 778 119 q 794 104 788 110 q 818 89 808 93 q 838 84 828 85 q 858 83 847 83 q 885 79 869 82 q 910 71 896 76 q 932 54 925 65 m 226 444 q 231 384 228 414 q 242 326 235 354 l 24 418 q 22 438 22 429 q 21 458 21 447 q 25 538 21 499 l 226 444 z "},"R":{"ha":796,"x_min":21,"x_max":782,"o":"m 239 135 l 239 43 q 207 10 239 21 q 135 -1 175 -1 q 63 10 96 -1 q 31 43 31 21 l 31 229 l 239 135 m 31 286 l 31 379 l 239 290 l 239 192 l 31 286 m 771 583 q 741 501 763 538 q 688 437 719 464 q 618 392 657 410 q 536 365 579 375 q 646 228 597 300 q 731 74 694 157 q 730 50 738 60 q 709 35 722 40 q 681 26 696 29 q 657 22 667 24 q 644 21 650 21 q 631 21 638 21 q 607 22 622 21 q 576 27 592 24 q 547 37 560 31 q 529 51 533 43 q 429 232 489 146 q 331 351 381 296 q 310 369 322 360 q 290 387 299 378 q 281 406 282 396 q 292 426 279 417 q 354 449 321 447 q 421 451 388 450 q 484 462 454 453 q 536 506 514 471 q 567 603 563 549 q 553 706 572 658 q 461 809 521 781 q 326 838 401 838 q 265 833 290 838 q 239 826 239 829 l 239 346 l 31 439 l 21 814 q 25 852 21 833 q 39 886 29 871 q 63 911 49 901 q 99 922 78 921 q 196 931 146 928 q 297 935 246 935 q 410 928 354 935 q 520 907 467 922 q 622 865 574 892 q 708 797 669 839 q 765 698 749 756 q 771 583 782 640 z "},"S":{"ha":775,"x_min":11,"x_max":764,"o":"m 160 908 q 254 938 204 929 q 354 946 304 946 q 480 933 411 946 q 609 889 549 919 q 710 810 669 858 q 753 692 751 763 q 740 669 753 678 q 710 656 728 660 q 674 650 692 651 q 649 649 657 649 q 621 650 639 649 q 585 656 603 651 q 556 669 568 660 q 543 692 543 678 q 524 762 542 731 q 479 815 507 793 q 417 848 451 836 q 346 860 382 860 q 318 854 331 860 q 288 831 306 849 l 160 908 m 57 815 q 106 872 78 849 l 254 783 q 235 719 239 756 l 57 815 m 667 431 q 740 324 715 386 q 746 196 764 261 q 699 101 732 139 q 622 41 665 64 q 526 8 578 18 q 422 -1 475 -1 q 296 13 365 -1 q 166 56 226 26 q 65 135 106 86 q 22 254 24 183 q 35 276 22 268 q 66 289 49 285 q 101 294 83 293 q 128 296 119 296 q 155 294 138 296 q 190 289 172 293 q 219 276 207 285 q 232 254 232 268 q 279 144 233 192 q 308 119 296 128 q 331 105 319 110 q 355 97 342 100 q 389 89 368 94 q 429 82 414 82 q 466 93 449 82 q 503 132 483 104 q 542 239 539 181 q 514 349 544 297 q 499 370 510 357 q 475 396 488 383 q 449 418 463 408 q 424 428 435 428 q 339 437 382 433 q 255 448 296 440 q 176 470 214 456 q 108 514 139 485 q 35 622 60 558 q 28 750 11 685 q 31 758 29 754 q 33 764 32 761 l 239 650 q 261 596 247 622 q 300 549 275 574 q 351 517 325 524 q 436 508 393 511 q 520 497 479 504 q 599 474 561 489 q 667 431 636 460 z "},"T":{"ha":844,"x_min":21,"x_max":824,"o":"m 313 289 l 532 138 l 532 46 q 498 11 532 22 q 424 0 464 0 q 347 11 382 0 q 313 46 313 22 l 313 289 m 714 956 q 747 952 728 956 q 783 942 765 949 q 812 922 800 935 q 824 890 824 910 q 812 859 824 872 q 783 838 800 846 q 747 827 765 831 q 714 824 728 824 l 532 824 l 532 367 l 313 524 l 313 824 l 131 824 q 98 827 117 824 q 62 838 79 831 q 33 859 44 846 q 21 890 21 872 q 33 922 21 910 q 62 942 44 935 q 98 952 79 949 q 131 956 117 956 l 714 956 m 532 300 l 532 211 l 313 363 l 313 444 l 532 300 z "},"U":{"ha":800,"x_min":22,"x_max":778,"o":"m 253 371 q 252 322 253 347 q 253 269 251 296 l 35 419 q 33 472 33 446 q 32 522 32 497 l 253 371 m 251 443 l 31 596 q 26 753 28 675 q 22 910 25 831 q 31 930 22 921 q 56 944 40 939 q 90 953 71 950 q 131 956 110 956 q 205 944 171 956 q 239 910 239 933 l 251 443 m 561 910 q 595 944 561 933 q 669 956 629 956 q 710 953 690 956 q 744 944 729 950 q 769 930 760 939 q 778 910 778 921 q 772 593 774 750 q 763 276 769 436 q 740 154 760 211 q 661 61 719 97 q 533 13 603 25 q 396 0 464 1 q 263 13 329 0 q 139 61 197 25 q 61 155 82 97 q 38 276 40 213 l 36 346 l 263 197 q 270 173 265 185 q 282 150 275 161 q 334 103 304 114 q 400 90 364 92 q 467 103 436 92 q 519 150 497 114 q 538 225 531 169 q 550 356 546 281 q 556 518 554 432 q 559 682 558 604 q 560 822 560 760 q 561 910 561 883 z "},"V":{"ha":954,"x_min":18,"x_max":935,"o":"m 711 901 q 750 935 718 925 q 819 944 782 944 q 863 941 842 944 q 901 932 885 938 q 926 919 918 926 q 932 901 935 911 q 588 33 793 456 q 549 8 581 17 q 481 -1 517 -1 q 440 1 460 -1 q 404 10 421 4 q 376 24 388 15 q 361 43 364 32 q 276 291 321 169 q 182 533 231 413 l 440 442 q 466 376 454 408 q 490 311 478 343 q 711 901 614 599 m 89 749 q 57 819 74 785 q 24 888 40 853 q 26 912 18 901 q 50 930 33 922 q 90 941 67 938 q 138 944 114 944 q 199 937 171 944 q 236 911 228 929 q 290 797 264 854 q 342 682 317 740 l 89 749 m 369 614 l 407 526 l 150 608 q 135 644 143 626 q 118 679 126 661 l 369 614 z "},"W":{"ha":1175,"x_min":19,"x_max":1156,"o":"m 504 201 l 475 85 l 188 256 q 172 316 181 286 q 156 378 164 346 l 504 201 m 454 24 q 425 10 446 17 q 354 -1 396 -1 q 313 1 333 -1 q 279 10 293 4 q 255 20 268 13 q 242 43 242 28 q 224 113 232 78 q 206 182 215 147 l 454 24 m 932 903 q 971 937 939 926 q 1040 947 1003 947 q 1084 944 1063 947 q 1122 935 1106 940 q 1147 921 1138 929 q 1153 903 1156 913 q 1142 858 1147 879 q 1131 814 1136 836 q 993 276 1060 546 l 960 142 q 939 63 947 103 q 935 43 936 53 q 926 26 933 33 q 911 16 919 19 q 896 10 903 13 q 824 -1 865 -1 q 794 0 811 -1 q 761 6 778 1 q 731 18 744 10 q 711 40 717 26 q 697 94 703 67 q 683 149 690 121 l 622 394 q 613 428 617 411 q 604 461 608 444 l 592 513 q 589 519 590 515 q 588 525 588 522 l 519 261 l 133 469 q 78 686 106 578 q 22 903 50 794 q 28 921 19 913 q 53 935 38 929 q 91 944 69 940 q 135 947 113 947 q 204 937 172 947 q 243 903 236 926 q 298 688 271 794 q 353 472 325 581 l 463 903 q 506 938 469 926 q 588 949 543 949 q 669 938 632 949 q 713 903 707 926 q 767 688 740 794 q 822 472 794 581 l 932 903 z "},"X":{"ha":836,"x_min":18,"x_max":818,"o":"m 550 458 q 811 49 686 260 q 810 26 818 36 q 785 10 801 17 q 745 -1 768 3 q 699 -4 722 -4 q 641 3 667 -4 q 606 25 615 10 q 524 163 565 96 q 438 299 482 231 l 406 256 l 271 374 q 301 416 286 396 q 331 458 315 436 q 26 867 188 669 q 24 888 18 878 q 47 905 31 897 q 88 917 64 913 q 136 921 111 921 q 192 914 165 921 q 232 890 218 907 q 336 756 285 824 q 438 618 388 688 q 524 753 482 686 q 606 892 565 821 q 641 914 615 907 q 699 921 667 921 q 745 917 722 921 q 785 907 768 914 q 810 890 801 900 q 811 868 818 881 q 550 458 686 657 m 206 285 q 221 306 213 296 q 236 326 229 315 l 371 208 q 353 186 363 197 q 336 164 344 175 l 206 285 m 300 117 q 267 72 283 93 q 231 26 250 50 q 191 3 217 10 q 136 -4 165 -4 q 88 0 111 -4 q 49 12 65 4 q 25 29 32 19 q 26 50 18 39 q 99 142 64 96 q 171 236 135 189 l 300 117 z "},"Y":{"ha":957,"x_min":18,"x_max":939,"o":"m 586 103 l 586 43 q 573 21 586 29 q 542 7 560 13 q 506 -1 524 1 q 478 -3 488 -3 q 450 -1 469 -3 q 412 6 431 1 q 378 20 393 11 q 364 43 364 29 l 364 219 q 368 217 365 219 l 586 103 m 364 294 l 364 365 l 586 238 l 586 169 l 364 294 m 714 933 q 756 959 728 951 q 815 967 783 967 q 865 963 840 967 q 908 951 890 958 q 932 933 925 943 q 931 910 939 922 l 586 449 l 586 307 l 364 436 l 364 457 l 26 910 q 25 933 18 922 q 49 951 32 943 q 92 963 67 958 q 142 967 117 967 q 201 959 174 967 q 242 933 229 951 q 360 775 301 854 q 478 617 419 696 l 714 933 z "},"Z":{"ha":843,"x_min":19,"x_max":825,"o":"m 497 390 l 456 343 l 315 429 l 360 481 l 497 390 m 718 206 q 774 190 751 206 q 807 152 796 175 q 819 102 818 129 q 809 52 819 75 q 776 14 799 29 q 718 -1 753 -1 l 215 -1 q 165 -3 192 -1 q 113 0 138 -4 q 67 17 88 4 q 33 56 46 29 q 30 121 19 86 q 65 190 40 156 q 123 258 89 225 q 188 317 157 290 q 244 363 219 344 q 276 388 269 381 l 415 301 l 318 206 l 718 206 m 718 949 q 765 932 743 944 q 802 900 788 919 q 821 857 817 881 q 814 806 825 833 l 536 433 l 394 524 l 556 740 l 124 740 q 48 772 74 740 q 22 842 22 804 q 47 913 22 881 q 124 947 72 946 l 565 947 l 718 949 z "},"[":{"ha":344,"x_min":21,"x_max":325,"o":"m 229 -85 q 297 -104 274 -85 q 321 -147 321 -124 q 296 -190 321 -171 q 218 -210 271 -210 q 174 -211 207 -210 q 108 -208 142 -212 q 47 -190 74 -204 q 21 -143 21 -175 l 21 904 q 47 951 21 936 q 108 970 74 965 q 174 974 142 975 q 218 972 207 972 q 292 953 265 972 q 322 909 319 933 q 303 865 325 885 q 229 846 281 846 l 229 -85 z "},"\\":{"ha":546,"x_min":18,"x_max":528,"o":"m 61 946 q 106 962 81 957 q 154 967 132 967 q 194 964 172 967 q 234 953 215 961 q 267 933 253 946 q 288 900 282 921 q 521 82 388 488 q 520 47 528 61 q 497 22 513 32 q 463 8 482 13 q 428 0 444 3 q 411 -1 421 -1 q 390 -1 401 -1 q 352 1 372 -1 q 315 8 332 3 q 283 22 297 13 q 265 46 269 32 q 135 471 194 258 q 22 900 75 683 q 35 928 18 915 q 61 946 51 942 z "},"]":{"ha":344,"x_min":19,"x_max":324,"o":"m 115 -85 l 115 846 q 42 865 64 846 q 22 909 19 885 q 52 953 25 933 q 126 972 79 972 q 170 974 138 972 q 237 970 203 975 q 297 951 271 965 q 324 904 324 936 l 324 -143 q 297 -190 324 -175 q 237 -208 271 -204 q 170 -211 203 -212 q 126 -210 138 -210 q 49 -190 75 -210 q 24 -147 24 -171 q 47 -104 24 -124 q 115 -85 71 -85 z "},"^":{"ha":581,"x_min":18,"x_max":563,"o":"m 554 565 q 558 543 563 554 q 538 524 553 532 q 502 510 524 515 q 458 504 481 504 q 408 513 432 504 q 369 540 385 521 q 326 608 344 572 q 292 683 307 644 q 255 608 274 644 q 211 540 236 572 q 172 513 196 521 q 122 504 149 504 q 79 510 100 504 q 44 524 58 515 q 24 543 29 532 q 26 565 18 554 q 76 645 51 597 q 122 745 100 693 q 162 849 143 797 q 193 939 181 900 q 228 965 200 957 q 289 974 256 974 q 352 965 324 974 q 388 939 381 956 q 419 849 400 900 q 459 745 438 797 q 505 645 481 693 q 554 565 529 597 z "},"_":{"ha":801,"x_min":21,"x_max":781,"o":"m 692 -4 q 715 -6 700 -4 q 745 -13 731 -8 q 770 -27 760 -18 q 781 -50 781 -36 q 770 -73 781 -64 q 745 -87 760 -82 q 716 -93 731 -92 q 692 -94 701 -94 l 111 -94 q 86 -92 101 -94 q 56 -85 71 -90 q 31 -72 42 -81 q 21 -50 21 -64 q 31 -27 21 -36 q 56 -13 42 -18 q 86 -6 71 -8 q 111 -4 101 -4 l 692 -4 z "},"`":{"ha":396,"x_min":21,"x_max":375,"o":"m 256 1042 l 375 801 l 221 801 l 21 1042 l 256 1042 z "},"a":{"ha":722,"x_min":19,"x_max":701,"o":"m 686 99 q 701 74 701 86 q 694 53 701 63 q 673 35 686 43 q 647 24 660 28 q 590 15 625 15 q 541 22 565 15 q 500 43 517 28 q 404 8 454 19 q 304 -3 354 -3 q 226 3 267 -3 q 151 24 186 10 q 90 60 115 38 q 56 117 64 83 q 51 184 49 149 q 67 251 53 219 q 87 288 74 271 q 115 321 100 306 l 271 192 q 270 166 269 179 q 272 140 271 153 q 277 119 275 128 q 294 107 279 110 q 335 112 315 104 q 371 132 354 119 q 401 158 388 144 q 415 172 408 165 q 421 188 422 178 q 416 220 418 204 q 413 253 414 236 q 412 266 413 256 q 410 288 411 276 q 410 310 410 300 q 410 319 410 319 q 399 318 401 319 l 397 318 l 293 413 q 349 424 321 421 q 404 429 376 428 l 407 429 q 390 516 403 478 q 339 590 378 554 q 314 603 328 601 q 286 591 299 603 q 265 568 274 579 q 235 515 246 547 q 213 494 229 501 q 185 483 197 488 q 143 476 165 476 q 101 478 121 475 q 73 484 89 479 q 44 497 57 489 q 26 516 32 504 q 25 544 19 528 q 71 619 42 588 q 138 673 100 651 q 219 705 175 694 q 308 715 263 715 q 459 685 388 715 q 575 593 531 654 q 606 533 596 565 q 621 466 617 500 q 626 397 625 432 q 626 329 626 363 q 627 268 626 300 q 633 206 628 236 q 651 147 639 175 q 686 99 664 119 m 338 292 q 336 291 336 292 q 335 290 336 290 q 324 281 331 288 q 314 274 318 278 q 304 265 310 269 q 300 260 301 263 q 296 256 299 258 l 294 254 q 293 251 294 253 l 164 357 q 196 376 179 368 q 229 392 213 385 l 338 292 z "},"b":{"ha":678,"x_min":21,"x_max":658,"o":"m 21 521 l 239 400 l 239 332 l 21 444 l 21 521 m 596 571 q 639 483 624 536 q 656 371 654 429 q 649 258 658 313 q 618 167 639 203 q 504 61 576 94 q 351 28 432 28 q 236 44 293 28 q 197 12 228 22 q 131 1 167 1 q 90 5 110 1 q 56 16 71 8 q 31 34 40 24 q 21 58 21 44 l 21 372 l 239 267 l 239 225 q 251 198 239 213 q 281 171 264 183 q 315 150 297 158 q 344 142 333 142 q 389 163 371 142 q 418 214 407 185 q 434 274 429 243 q 439 325 439 306 q 436 398 440 361 q 422 469 432 435 q 413 494 418 482 q 401 518 408 507 q 318 554 375 567 q 302 549 315 554 q 275 540 289 544 q 250 529 261 535 q 239 521 239 524 l 239 472 l 21 585 l 21 878 q 55 921 21 907 q 131 935 89 935 q 205 921 171 935 q 239 878 239 907 l 239 656 q 353 669 293 669 q 485 647 419 669 q 596 571 551 624 z "},"c":{"ha":703,"x_min":21,"x_max":683,"o":"m 101 592 q 228 684 154 653 q 385 715 303 715 q 476 704 429 715 q 564 669 524 693 q 632 609 604 646 q 664 522 660 572 q 652 495 665 506 q 621 478 639 485 q 584 470 603 472 q 556 468 565 468 l 550 468 q 519 471 536 468 q 485 480 501 474 q 458 497 469 486 q 446 522 447 507 q 440 547 444 533 q 426 574 435 561 q 406 594 417 586 q 381 603 394 603 q 340 586 360 603 q 307 554 321 569 q 299 543 306 553 q 284 522 292 533 q 271 502 276 511 q 267 493 265 493 l 101 592 m 28 435 q 43 491 33 464 q 68 544 53 518 l 246 436 q 238 378 239 408 q 240 317 238 347 l 28 435 m 649 275 q 670 260 657 271 q 681 236 683 249 q 570 56 653 114 q 364 -1 488 -1 q 249 8 300 -1 q 158 42 197 18 q 92 108 119 67 q 46 213 64 150 q 21 368 21 288 l 256 243 q 258 231 258 235 q 272 192 265 214 q 291 151 279 169 q 319 119 303 132 q 358 108 335 107 q 397 122 379 108 q 427 156 414 136 q 449 197 440 175 q 463 236 458 219 q 478 264 467 253 q 506 281 490 275 q 540 288 522 286 q 571 290 557 290 q 611 288 590 292 q 649 275 632 283 z "},"d":{"ha":678,"x_min":19,"x_max":657,"o":"m 657 444 l 439 332 l 439 400 l 657 521 l 657 444 m 82 571 q 192 647 126 624 q 325 669 258 669 q 439 656 385 669 l 439 878 q 473 921 439 907 q 549 935 507 935 q 623 921 589 935 q 657 878 657 907 l 657 585 l 439 472 l 439 521 q 428 529 439 524 q 403 540 417 535 q 376 549 389 544 q 360 554 363 554 q 276 518 303 567 q 265 494 269 507 q 256 469 260 482 q 242 398 246 435 q 239 325 238 361 q 244 274 239 306 q 260 214 249 243 q 290 163 271 185 q 335 142 308 142 q 363 150 346 142 q 397 171 381 158 q 426 198 414 183 q 439 225 439 213 l 439 267 l 657 372 l 657 58 q 647 34 657 44 q 622 16 638 24 q 588 5 607 8 q 547 1 568 1 q 481 12 511 1 q 442 44 450 22 q 326 28 386 28 q 174 61 246 28 q 60 167 101 94 q 29 258 39 203 q 22 371 19 313 q 39 483 24 429 q 82 571 54 536 z "},"e":{"ha":714,"x_min":19,"x_max":694,"o":"m 663 356 q 624 342 644 346 q 585 339 604 339 l 240 339 q 249 290 243 314 q 261 242 254 265 l 269 218 q 281 185 274 203 q 300 151 289 167 q 325 126 311 136 q 357 117 339 117 q 399 130 381 117 q 430 163 417 143 q 452 206 443 183 q 465 247 461 229 q 482 275 469 264 q 510 292 494 286 q 544 299 526 297 q 576 301 561 301 q 615 299 594 303 q 653 286 636 294 q 675 271 661 282 q 686 247 689 260 q 640 138 672 185 q 564 61 607 92 q 470 15 521 31 q 367 0 419 0 q 265 14 315 0 q 172 56 215 28 q 96 126 129 85 q 46 222 63 168 q 22 399 19 308 q 75 568 24 490 q 92 590 83 579 q 110 611 100 601 l 260 488 q 254 469 257 478 q 249 449 251 460 l 464 449 q 471 463 475 449 q 465 482 467 476 q 453 518 458 500 q 443 554 449 536 q 431 581 439 568 q 411 603 424 593 q 383 622 397 614 q 357 642 368 629 q 340 660 349 651 q 322 676 331 668 q 300 695 311 686 q 278 714 289 704 q 383 729 332 729 q 460 722 421 729 q 536 699 500 714 q 602 658 572 683 q 651 599 632 633 q 672 544 660 581 q 689 470 683 508 q 690 400 694 432 q 663 356 686 368 m 328 586 q 321 578 325 582 q 314 572 317 575 q 301 558 307 565 q 289 542 296 550 l 156 653 q 215 690 183 675 l 328 586 z "},"f":{"ha":592,"x_min":21,"x_max":571,"o":"m 190 344 q 192 386 192 365 q 193 428 192 407 l 403 260 l 401 210 l 190 344 m 400 143 l 397 56 q 364 14 397 28 q 290 0 331 0 q 216 14 250 0 q 183 56 182 28 q 186 166 185 111 q 189 275 188 221 l 400 143 m 439 807 q 422 760 426 785 q 415 713 418 736 q 414 681 414 697 q 413 650 414 665 l 449 649 q 496 640 469 647 q 540 621 522 633 q 558 592 558 608 q 524 557 557 576 q 488 544 508 549 q 449 542 467 540 q 429 542 439 542 q 411 543 419 542 q 410 522 410 532 q 410 500 410 511 l 406 332 l 194 501 l 196 551 l 132 553 q 80 563 107 554 q 37 585 53 572 q 22 615 21 599 q 57 644 24 631 q 93 657 72 653 q 132 660 114 661 l 199 658 q 209 771 200 715 q 258 871 218 826 q 338 923 292 907 q 432 939 383 939 q 517 926 478 939 q 542 915 529 922 q 563 899 556 908 q 570 878 571 889 q 556 854 569 867 q 509 830 536 836 q 454 826 482 824 q 446 817 449 821 q 439 807 443 814 z "},"g":{"ha":707,"x_min":18,"x_max":686,"o":"m 83 510 q 87 515 86 513 q 89 519 88 517 q 106 542 97 532 q 126 564 115 553 l 258 446 q 251 422 254 435 q 244 399 247 410 l 83 510 m 493 646 q 531 669 506 661 q 585 676 557 676 q 622 673 604 676 q 655 663 640 669 q 678 647 669 657 q 685 624 686 636 l 654 229 q 648 146 650 189 q 640 60 646 103 q 622 -22 635 18 q 585 -97 610 -62 q 467 -190 540 -158 q 317 -221 394 -221 q 224 -210 269 -221 q 140 -176 179 -199 q 71 -120 101 -154 q 24 -42 40 -86 q 24 -15 18 -26 q 46 6 31 -3 q 82 18 61 14 q 125 22 103 22 q 184 13 157 22 q 218 -15 211 4 q 233 -48 224 -31 q 256 -80 243 -65 q 284 -105 268 -94 q 318 -115 300 -115 q 375 -88 353 -115 q 411 -33 397 -61 q 415 -24 413 -32 q 420 -8 417 -17 q 426 7 424 0 q 429 14 428 14 q 343 6 386 6 q 236 19 290 7 q 140 65 182 32 q 92 128 110 90 q 63 203 74 167 q 40 331 43 265 q 60 458 38 397 l 240 336 q 247 276 240 314 q 265 201 253 238 q 297 137 278 164 q 343 107 317 110 q 377 115 361 106 q 404 139 393 125 q 433 198 419 156 q 455 289 446 240 q 468 383 464 338 q 469 450 472 428 q 438 528 463 499 q 378 558 413 558 q 324 538 347 558 q 285 494 301 518 l 168 601 q 264 650 213 633 q 371 667 315 667 q 433 662 403 667 q 493 646 464 657 z "},"h":{"ha":678,"x_min":21,"x_max":658,"o":"m 236 286 l 236 199 l 21 333 l 21 417 l 236 286 m 653 365 q 657 213 658 290 q 656 61 656 136 q 643 33 656 44 q 613 17 631 22 q 575 9 594 11 q 543 7 556 7 q 513 10 531 7 q 478 19 494 13 q 451 35 463 25 q 440 61 440 46 q 440 183 440 124 q 439 304 440 243 q 432 409 439 357 q 399 508 425 461 q 387 528 394 517 q 370 550 379 539 q 351 569 361 561 q 329 576 340 576 q 306 569 321 576 q 274 552 290 563 q 247 530 258 542 q 236 510 236 518 l 236 357 l 21 489 l 21 875 q 55 917 21 903 q 129 932 89 932 q 203 917 169 932 q 236 875 236 903 l 236 675 q 260 680 249 678 q 285 683 272 682 q 430 674 356 690 q 557 604 504 657 q 626 494 604 556 q 653 365 647 432 m 236 133 l 236 53 q 203 10 236 25 q 129 -4 169 -4 q 55 10 89 -4 q 21 53 21 25 l 21 260 l 236 133 z "},"i":{"ha":271,"x_min":21,"x_max":250,"o":"m 135 447 q 78 482 107 465 q 21 518 49 499 l 21 651 q 34 680 21 669 q 66 697 47 690 q 103 706 85 703 q 135 708 122 708 q 167 706 147 708 q 204 697 186 703 q 235 679 222 690 q 249 651 249 668 l 249 378 q 191 412 219 394 q 135 447 163 429 m 108 253 q 178 213 143 232 q 249 174 214 194 l 249 57 q 235 28 249 39 q 203 12 222 18 q 166 3 185 6 q 135 0 147 0 q 103 3 122 0 q 67 12 85 6 q 35 29 49 18 q 22 57 22 40 l 22 313 q 64 282 43 297 q 108 253 85 267 m 142 306 q 81 347 110 325 q 21 388 51 368 l 21 443 q 134 374 78 408 q 249 306 190 340 l 249 246 q 194 276 221 261 q 142 306 168 290 m 240 896 q 250 874 250 886 l 250 808 q 239 786 249 796 q 217 769 229 776 q 190 759 204 763 q 165 754 176 756 l 136 751 q 105 754 124 751 q 67 763 86 757 q 35 781 49 769 q 22 808 22 792 l 22 874 q 33 896 24 886 q 54 913 42 906 q 81 923 67 919 q 106 928 94 926 q 120 929 113 929 q 136 931 128 929 q 163 929 147 931 q 192 924 178 928 q 219 913 207 919 q 240 896 232 906 z "},"j":{"ha":300,"x_min":-86,"x_max":279,"o":"m 57 532 q 61 574 60 553 q 65 618 63 596 q 101 659 68 646 q 174 672 135 672 q 214 669 194 672 q 248 658 233 665 q 271 642 263 651 q 278 618 279 632 q 268 512 271 565 q 263 406 265 458 l 57 532 m 268 121 q 271 81 271 101 q 272 42 271 61 q 273 -22 274 11 q 267 -87 272 -56 q 249 -150 261 -119 q 214 -204 238 -181 q 144 -246 186 -232 q 58 -260 103 -260 q -2 -253 26 -260 q -54 -231 -31 -246 q -83 -192 -81 -212 q -54 -156 -86 -171 q -12 -142 -36 -146 q 36 -139 13 -137 q 46 -121 42 -132 q 56 -74 54 -99 q 60 -26 58 -50 q 59 76 63 25 q 53 181 56 128 q 51 210 51 196 q 50 239 51 224 l 268 121 m 49 310 q 53 465 49 386 l 261 340 q 265 186 261 264 l 49 310 m 269 896 q 279 874 279 886 l 279 808 q 268 786 278 796 q 246 769 258 776 q 219 759 233 763 q 194 754 206 756 l 165 751 q 134 754 153 751 q 97 763 115 757 q 65 781 78 769 q 51 808 51 792 l 51 874 q 62 896 53 886 q 83 913 71 906 q 110 923 96 919 q 135 928 124 926 q 149 929 142 929 q 165 931 157 929 q 192 929 176 931 q 222 924 207 928 q 249 913 236 919 q 269 896 261 906 z "},"k":{"ha":631,"x_min":21,"x_max":613,"o":"m 21 836 l 21 874 q 54 916 21 901 q 128 931 88 931 q 201 916 168 931 q 235 874 235 901 l 235 739 l 21 836 m 235 674 l 235 604 l 21 725 l 21 772 l 235 674 m 604 106 q 607 83 613 94 q 594 64 601 71 q 550 42 579 49 q 499 36 521 36 q 443 45 471 36 q 399 76 415 54 q 235 282 321 183 l 235 51 q 201 9 235 24 q 128 -6 168 -6 q 54 9 88 -6 q 21 51 21 24 l 21 658 l 235 538 l 235 500 q 240 504 238 503 q 246 508 243 506 q 322 573 285 540 q 393 642 358 606 q 432 660 406 653 q 488 667 458 667 q 549 658 519 667 q 589 629 578 649 q 592 606 596 617 q 578 588 588 596 q 486 502 533 543 q 390 422 439 461 q 376 412 383 417 q 361 401 368 407 q 487 257 426 331 q 604 106 547 183 z "},"l":{"ha":254,"x_min":21,"x_max":233,"o":"m 233 406 l 21 543 l 21 879 q 54 922 21 907 q 128 936 88 936 q 201 922 168 936 q 233 879 233 907 l 233 406 m 233 342 l 233 249 l 21 399 l 21 471 l 233 342 m 21 325 l 233 181 l 233 57 q 201 15 233 29 q 128 1 168 1 q 54 15 88 1 q 21 57 21 29 l 21 325 z "},"m":{"ha":1085,"x_min":21,"x_max":1064,"o":"m 243 181 l 243 60 q 230 31 243 42 q 198 14 217 19 q 160 6 179 8 q 126 4 140 4 q 96 7 114 4 q 61 16 78 10 q 33 33 44 22 q 21 60 21 43 l 21 292 l 243 181 m 21 364 l 21 465 l 243 328 l 243 249 l 21 364 m 1063 72 q 1051 44 1064 54 q 1019 27 1038 33 q 982 19 1001 21 q 951 17 963 17 l 946 17 q 915 19 932 17 q 881 28 897 22 q 853 45 864 35 q 840 72 842 56 q 828 256 833 164 q 815 440 822 349 q 810 492 813 465 q 799 542 808 518 q 785 569 794 551 q 765 593 775 588 q 744 594 758 597 q 722 588 731 590 q 701 579 711 585 q 682 567 690 574 q 651 531 661 551 q 638 501 644 519 q 633 471 632 483 q 638 444 635 457 q 642 417 640 431 q 647 381 644 399 q 651 346 649 364 q 646 57 664 199 q 632 28 644 39 q 602 12 619 18 q 567 3 585 6 q 535 0 549 0 q 494 4 515 0 q 457 17 474 8 q 435 33 447 22 q 424 57 422 43 q 434 291 438 171 q 399 524 431 411 q 391 548 396 533 q 379 575 386 563 q 363 595 372 588 q 342 599 354 603 q 322 590 331 593 q 301 581 306 581 l 243 550 l 243 396 l 21 538 l 21 671 q 34 699 21 689 q 65 716 47 710 q 101 725 82 722 q 132 728 119 728 q 156 726 142 728 q 184 721 169 725 q 212 710 199 717 q 233 694 225 704 q 274 706 253 701 q 315 713 294 711 q 438 708 376 719 q 547 658 500 697 q 659 696 596 683 q 776 708 722 708 q 876 694 828 708 q 961 646 925 681 q 1004 590 989 621 q 1026 526 1019 560 q 1036 458 1033 493 q 1042 389 1039 422 l 1063 72 z "},"n":{"ha":676,"x_min":21,"x_max":657,"o":"m 21 432 l 21 533 l 244 435 l 244 322 l 21 432 m 21 363 l 244 256 l 244 57 q 209 15 244 29 q 132 1 174 1 q 56 15 90 1 q 21 57 21 29 l 21 363 m 593 601 q 632 483 618 557 q 651 331 646 410 q 655 177 657 251 q 647 54 653 103 q 612 11 643 24 q 543 -1 581 -1 q 499 3 521 -1 q 460 14 476 7 q 433 31 443 21 q 424 54 422 42 q 428 124 426 75 q 428 233 429 172 q 424 358 428 293 q 411 477 419 424 q 390 565 403 531 q 356 600 376 600 q 297 583 324 600 q 243 547 271 567 l 243 501 l 21 600 l 21 668 q 55 710 21 696 q 131 724 89 724 q 192 716 163 724 q 235 693 221 708 q 363 713 296 713 q 431 706 397 713 q 496 687 465 700 q 551 653 526 674 q 593 601 576 632 z "},"o":{"ha":744,"x_min":19,"x_max":729,"o":"m 271 481 q 267 455 268 468 q 265 429 267 442 l 40 526 q 49 549 44 538 q 60 572 53 561 l 271 481 m 485 731 q 625 631 569 699 q 705 483 681 564 q 721 315 729 401 q 670 158 713 229 q 550 42 628 88 q 358 -3 472 -3 q 220 25 282 -3 q 111 114 158 53 q 65 190 83 149 q 35 277 46 232 q 22 369 24 322 q 25 458 19 415 l 265 358 q 273 325 268 357 q 288 253 278 293 q 313 178 297 214 q 350 135 328 143 q 363 131 357 132 q 376 129 369 129 q 435 171 414 129 q 465 274 457 213 q 467 405 472 336 q 446 527 461 474 q 406 608 431 581 q 350 614 382 636 q 315 583 324 597 q 293 544 307 568 l 94 629 q 109 646 101 638 q 125 661 117 654 q 237 729 174 706 q 367 753 300 753 q 485 731 425 753 z "},"p":{"ha":663,"x_min":21,"x_max":642,"o":"m 240 436 q 237 410 238 424 q 235 383 236 397 l 235 368 l 21 479 l 21 558 l 24 558 l 240 436 m 213 658 q 281 676 249 671 q 344 682 314 682 q 506 633 440 682 q 606 510 572 583 q 641 350 640 436 q 607 190 642 264 q 501 67 572 117 q 319 18 429 18 q 235 29 279 18 l 235 -203 q 201 -245 235 -231 q 128 -260 168 -260 q 54 -245 88 -260 q 21 -203 21 -231 l 21 413 l 242 297 q 324 132 257 200 q 385 185 361 151 q 421 261 410 219 q 431 349 432 303 q 417 438 429 396 q 381 515 404 481 q 325 568 358 549 l 324 568 l 314 564 q 281 533 292 549 q 258 494 269 517 l 22 626 q 57 666 25 653 q 128 679 89 679 q 174 674 151 679 q 213 658 197 669 z "},"q":{"ha":663,"x_min":21,"x_max":642,"o":"m 450 658 q 488 674 465 669 q 535 679 511 679 q 606 666 574 679 q 640 626 638 653 l 404 494 q 382 533 393 517 q 349 564 371 549 l 339 568 l 338 568 q 281 515 304 549 q 246 438 258 481 q 232 349 233 396 q 242 261 231 303 q 277 185 253 219 q 339 132 301 150 q 421 297 407 200 l 642 413 l 642 -203 q 608 -245 642 -231 q 535 -260 575 -260 q 461 -245 494 -260 q 428 -203 428 -231 l 428 29 q 343 18 383 18 q 162 67 233 18 q 56 190 90 117 q 22 350 21 264 q 56 510 22 436 q 156 633 90 583 q 318 682 222 682 q 381 676 349 682 q 450 658 414 671 m 639 558 l 642 558 l 642 479 l 428 368 l 428 383 q 426 410 426 397 q 422 436 425 424 l 639 558 z "},"r":{"ha":571,"x_min":21,"x_max":553,"o":"m 546 550 q 544 516 553 529 q 519 495 536 503 q 480 484 503 488 q 436 481 457 481 q 404 482 418 481 q 381 486 390 483 q 342 510 356 494 q 319 541 328 526 q 303 565 311 556 q 281 572 296 575 q 258 543 265 568 q 247 488 250 518 q 244 429 244 457 q 244 390 244 401 l 21 514 l 21 710 q 56 751 21 738 q 133 765 92 765 q 210 751 175 765 q 244 710 244 738 l 244 685 q 331 684 285 689 q 419 664 376 679 q 497 620 463 649 q 546 550 531 592 m 21 379 l 21 444 l 244 321 l 244 274 l 21 379 m 244 208 l 244 54 q 210 12 244 26 q 133 -3 175 -3 q 56 12 90 -3 q 21 54 21 26 l 21 310 l 244 208 z "},"s":{"ha":674,"x_min":17,"x_max":661,"o":"m 311 608 l 311 608 l 311 608 m 60 608 q 83 629 71 619 q 108 646 94 639 l 258 550 q 254 508 251 531 l 60 608 m 326 397 q 535 303 461 351 q 635 210 608 254 q 647 126 661 165 q 592 57 633 86 q 490 10 551 28 q 360 -7 428 -7 q 268 1 314 -7 q 179 28 222 10 q 98 74 136 46 q 31 143 60 103 q 28 165 22 156 q 51 181 35 175 q 90 190 67 188 q 139 193 114 193 q 207 186 175 193 q 250 165 239 179 q 269 143 257 157 q 294 116 281 129 q 323 93 308 103 q 349 83 338 83 q 389 110 374 83 q 406 170 404 136 q 391 239 407 204 q 338 290 375 274 q 272 315 310 304 q 195 337 235 325 q 119 365 156 349 q 58 406 83 381 q 25 467 33 431 q 32 557 17 504 l 286 429 q 306 413 299 424 q 326 397 313 401 m 172 674 q 310 696 238 696 q 492 658 404 696 q 632 547 579 619 q 633 526 640 535 q 610 510 626 517 q 572 501 594 504 q 524 497 549 497 q 455 504 488 497 q 411 526 422 511 q 393 547 406 533 q 365 574 381 561 q 335 598 350 588 q 311 608 321 608 q 301 601 308 608 q 292 597 294 594 l 172 674 z "},"t":{"ha":621,"x_min":21,"x_max":601,"o":"m 411 149 q 422 144 414 147 q 429 143 425 143 q 485 144 456 147 q 537 133 514 142 q 571 110 560 125 q 574 76 582 96 q 510 14 554 32 q 415 -4 465 -4 q 350 3 382 -4 q 294 22 318 10 q 242 67 261 40 q 215 124 224 93 q 203 190 206 156 q 200 257 201 224 l 200 297 l 411 149 m 200 374 l 200 461 l 419 293 q 420 254 419 274 q 421 215 421 235 l 200 374 m 489 696 q 547 687 521 697 q 588 662 574 676 q 598 631 601 647 q 565 603 594 615 q 528 590 549 593 q 489 586 508 588 q 455 585 472 586 q 421 585 438 585 q 419 505 419 544 q 419 425 419 465 l 419 368 l 200 532 q 201 557 201 544 q 201 582 200 569 q 128 590 164 585 q 56 611 92 596 q 22 650 21 626 q 56 689 24 674 q 92 702 71 699 q 132 706 114 706 q 169 701 151 706 q 204 690 186 697 l 204 692 q 208 783 207 738 q 213 872 210 828 q 223 898 213 888 q 249 916 233 908 q 283 927 264 924 q 324 931 303 931 q 365 926 344 931 q 400 915 385 922 q 424 897 415 908 q 432 872 433 886 q 428 783 429 828 q 424 694 426 739 q 456 695 440 694 q 489 696 472 696 z "},"u":{"ha":676,"x_min":19,"x_max":656,"o":"m 656 289 l 656 188 l 432 286 l 432 399 l 656 289 m 656 358 l 432 465 l 432 664 q 467 706 432 692 q 544 719 503 719 q 621 706 586 719 q 656 664 656 692 l 656 358 m 83 119 q 44 238 58 164 q 25 390 31 311 q 22 544 19 469 q 29 667 24 619 q 65 710 33 697 q 133 722 96 722 q 178 718 156 722 q 217 707 200 714 q 244 690 233 700 q 253 667 254 679 q 249 597 250 646 q 248 488 247 549 q 253 363 249 428 q 265 244 257 297 q 287 156 274 190 q 321 121 300 121 q 379 138 353 121 q 433 174 406 154 l 433 219 l 656 121 l 656 53 q 622 11 656 25 q 546 -3 588 -3 q 485 5 514 -3 q 442 28 456 13 q 314 8 381 8 q 245 15 279 8 q 181 34 211 21 q 125 68 150 47 q 83 119 100 89 z "},"v":{"ha":772,"x_min":17,"x_max":754,"o":"m 546 706 q 584 737 556 726 q 644 747 613 747 q 688 742 667 747 q 725 728 710 738 q 747 706 740 719 q 747 675 754 692 l 499 46 q 458 11 490 22 q 390 0 426 0 q 319 11 351 0 q 279 42 286 22 l 126 422 l 383 363 l 392 343 l 546 706 m 25 657 q 24 688 17 674 q 49 710 32 701 q 89 724 65 719 q 138 729 113 729 q 203 719 174 729 q 244 688 233 710 l 294 569 l 43 613 l 25 657 m 328 492 l 354 433 l 94 496 l 72 546 l 328 492 z "},"w":{"ha":1251,"x_min":21,"x_max":1233,"o":"m 21 657 q 63 684 32 675 q 126 693 93 693 q 190 683 161 693 q 228 653 219 674 l 268 561 l 21 657 m 300 486 l 328 421 l 67 514 l 36 585 q 43 582 38 585 l 300 486 m 1017 669 q 1056 700 1026 690 q 1118 710 1085 710 q 1165 705 1142 710 q 1203 692 1188 700 q 1226 671 1219 683 q 1226 642 1233 658 l 981 50 q 930 11 965 24 q 858 -1 894 -1 q 798 8 825 -1 q 764 38 771 18 l 618 397 l 469 38 q 421 8 451 18 q 358 -1 390 -1 q 297 8 325 -1 q 261 38 269 18 l 100 439 l 354 358 l 368 325 l 515 669 q 549 701 524 690 q 606 711 574 711 q 680 697 643 711 q 732 650 717 682 l 869 325 l 1017 669 z "},"x":{"ha":715,"x_min":18,"x_max":697,"o":"m 467 694 q 512 727 483 718 q 572 736 540 736 q 624 730 599 736 q 666 714 649 724 q 690 691 683 704 q 688 664 697 678 l 479 368 l 688 69 q 690 42 697 56 q 666 18 683 28 q 624 2 649 8 q 572 -4 599 -4 q 511 6 540 -4 q 467 39 482 15 l 357 196 l 342 174 l 172 276 l 236 367 l 28 664 q 25 691 18 678 q 50 715 32 704 q 93 731 68 725 q 144 738 118 738 q 205 728 176 738 q 250 694 233 718 l 358 540 l 467 694 m 249 39 q 203 6 232 15 q 143 -3 175 -3 q 92 3 117 -3 q 49 19 67 10 q 25 42 32 29 q 28 69 18 56 l 71 131 l 249 39 m 106 182 l 136 225 l 307 122 l 285 90 l 106 182 z "},"y":{"ha":739,"x_min":18,"x_max":721,"o":"m 510 660 q 547 689 518 679 q 608 699 576 699 q 654 694 632 699 q 692 682 676 690 q 714 661 707 674 q 714 632 721 649 l 496 107 q 476 34 481 71 q 465 -42 472 -3 q 433 -131 457 -92 q 375 -195 410 -169 q 299 -235 340 -221 q 211 -249 257 -249 q 65 -211 135 -249 q 44 -196 54 -204 q 33 -174 35 -187 q 43 -151 32 -160 q 65 -136 54 -142 q 101 -124 81 -126 q 140 -121 122 -121 q 164 -122 151 -121 q 188 -126 176 -122 q 203 -131 196 -129 q 217 -126 210 -133 q 234 -104 225 -121 q 251 -65 243 -87 q 262 -19 258 -43 q 261 24 265 4 q 233 124 251 75 q 194 222 215 174 q 152 319 174 271 q 111 415 131 367 l 357 343 q 362 333 360 338 q 365 322 364 328 l 510 660 m 25 615 q 25 644 18 632 q 47 665 32 657 q 85 678 63 674 q 129 682 107 682 q 191 672 163 682 q 229 643 219 663 l 276 533 l 29 604 l 25 615 m 308 460 l 329 410 l 79 488 l 58 535 l 60 535 l 308 460 m 58 535 l 58 536 l 58 535 z "},"z":{"ha":707,"x_min":17,"x_max":689,"o":"m 571 115 q 656 97 626 115 q 686 58 685 79 q 659 18 688 36 q 571 0 631 0 l 333 0 q 294 -1 325 0 q 224 0 263 -1 q 143 5 185 1 q 72 17 101 8 q 29 42 42 26 q 35 81 17 57 q 87 139 60 110 q 138 199 114 168 q 198 278 168 238 q 257 358 228 318 l 429 260 l 318 115 l 571 115 m 139 592 q 85 600 114 592 q 38 622 56 608 q 22 653 21 635 q 58 690 24 671 q 98 703 76 699 q 139 707 119 707 l 571 707 q 606 705 585 707 q 645 696 626 703 q 676 677 664 689 q 685 644 689 665 q 672 618 683 639 q 644 569 661 597 q 608 512 628 542 q 572 457 589 482 q 544 415 556 432 q 532 400 533 399 l 361 508 l 415 592 l 139 592 m 293 411 l 325 456 l 494 349 l 467 310 l 293 411 z "},"{":{"ha":497,"x_min":18,"x_max":481,"o":"m 394 -67 q 419 -98 403 -87 q 451 -117 436 -108 q 473 -138 465 -126 q 472 -172 481 -150 q 450 -201 465 -190 q 416 -216 435 -211 q 378 -221 397 -221 q 347 -218 360 -221 q 239 -161 275 -203 q 188 -64 203 -119 q 169 54 172 -8 q 158 173 165 117 q 131 273 150 229 q 63 335 111 317 q 22 379 18 353 q 63 447 25 406 q 113 549 100 490 q 128 672 125 608 q 136 798 132 736 q 163 907 140 860 q 233 979 185 954 q 374 994 282 1004 q 399 988 385 993 q 426 972 414 982 q 445 949 439 963 q 444 915 451 935 q 424 886 436 893 q 397 877 411 879 q 370 873 383 875 q 350 858 357 871 q 322 733 325 794 q 316 613 318 671 q 303 499 314 554 q 251 394 292 444 q 317 321 294 360 q 351 241 340 282 q 363 160 361 200 q 367 80 365 119 q 374 3 369 40 q 394 -67 378 -35 z "},"}":{"ha":497,"x_min":17,"x_max":479,"o":"m 103 -67 q 124 3 119 -35 q 130 80 128 40 q 134 160 132 119 q 147 241 136 200 q 180 321 157 282 q 246 394 203 360 q 194 499 206 444 q 181 613 183 554 q 176 733 179 671 q 147 858 172 794 q 127 873 140 871 q 100 877 114 875 q 74 886 86 879 q 53 915 61 893 q 52 949 46 935 q 71 972 58 963 q 99 988 83 982 q 124 994 114 993 q 146 997 135 996 q 168 997 157 997 q 285 968 246 997 q 342 891 325 939 q 363 783 360 843 q 369 663 365 724 q 386 544 374 601 q 435 447 399 488 q 476 379 472 406 q 435 335 479 353 q 367 273 388 317 q 340 173 347 229 q 328 54 332 117 q 310 -64 325 -8 q 258 -161 294 -119 q 150 -218 222 -203 q 119 -221 138 -221 q 81 -216 100 -221 q 47 -201 63 -211 q 25 -172 32 -190 q 24 -138 17 -150 q 47 -117 32 -126 q 78 -98 61 -108 q 103 -67 94 -87 z "},"":{"ha":957,"x_min":21,"x_max":942,"o":"m 794 182 q 911 156 881 182 q 926 100 942 131 q 851 44 910 69 q 700 18 793 18 q 635 22 669 18 q 565 32 601 25 q 505 50 538 39 q 444 58 472 61 q 406 39 422 57 q 371 13 390 21 q 299 3 344 3 q 242 7 271 3 q 193 21 214 11 q 163 45 172 31 q 167 82 154 60 q 208 158 189 124 q 239 228 226 193 q 255 303 251 264 q 251 390 258 342 l 150 390 q 53 411 86 390 q 21 456 21 432 q 53 501 21 481 q 150 522 86 522 l 225 522 q 230 719 207 638 q 301 852 253 800 q 419 928 350 904 q 561 953 488 953 q 679 938 621 953 q 788 897 738 924 q 876 831 838 869 q 932 743 914 792 q 931 706 940 722 q 903 679 922 690 q 856 663 883 668 q 801 657 829 657 q 724 669 760 657 q 679 708 689 682 q 634 788 658 764 q 586 813 610 813 q 537 788 560 813 q 499 724 514 764 q 481 631 485 683 q 489 522 476 579 l 571 522 q 672 501 640 522 q 702 456 704 481 q 666 411 700 432 q 571 390 632 390 l 515 390 q 517 288 524 335 q 490 189 510 242 q 535 182 504 189 q 601 167 567 175 q 663 152 635 158 q 696 147 690 146 q 717 157 710 151 q 734 167 725 163 q 756 176 743 172 q 794 182 769 181 z "},"":{"ha":894,"x_min":22,"x_max":878,"o":"m 738 526 q 838 506 804 526 q 873 459 872 485 q 840 413 874 433 q 738 392 807 392 l 607 392 l 607 321 l 708 321 q 808 300 774 321 q 842 253 842 279 q 810 207 843 228 q 708 186 778 186 l 607 186 l 607 68 q 595 40 607 51 q 565 19 583 28 q 521 7 546 11 q 471 3 496 3 q 422 7 446 3 q 380 19 399 11 q 349 39 361 26 q 338 68 338 51 l 338 186 l 213 186 q 109 207 142 186 q 78 253 76 228 q 114 300 79 279 q 213 321 149 321 l 338 321 l 338 392 l 157 392 q 56 413 89 392 q 22 459 22 433 q 56 506 22 485 q 157 526 89 526 l 281 526 l 65 881 q 63 913 54 897 q 92 941 71 929 q 142 960 113 953 q 203 967 172 967 q 274 956 240 967 q 325 917 307 944 l 488 656 q 490 659 489 658 q 492 663 490 660 l 608 914 q 658 949 619 938 q 739 961 696 961 q 795 956 768 961 q 842 941 822 951 q 869 915 861 931 q 868 878 878 899 l 688 526 l 738 526 z "},"":{"ha":518,"x_min":15,"x_max":503,"o":"m 186 989 q 233 922 224 965 q 218 842 242 879 q 179 806 203 818 q 128 793 156 793 q 71 810 96 793 q 24 877 33 833 q 39 958 15 921 q 129 1007 72 1007 q 186 989 163 1007 m 447 989 q 494 922 485 965 q 479 842 503 879 q 413 796 456 804 q 401 793 406 793 q 389 793 396 793 q 332 810 357 793 q 285 877 294 833 q 300 958 276 921 q 339 994 315 982 q 389 1006 363 1006 q 447 989 421 1006 z "},"":{"ha":1014,"x_min":21,"x_max":993,"o":"m 507 863 q 360 833 429 863 q 241 752 292 803 q 160 633 190 701 q 131 486 131 564 q 160 340 131 408 q 241 220 190 271 q 360 140 292 169 q 507 110 429 110 q 653 140 585 110 q 773 220 722 169 q 853 340 824 271 q 883 486 883 408 q 853 633 883 564 q 773 752 824 701 q 653 833 722 803 q 507 863 585 863 m 507 0 q 318 38 407 0 q 163 142 229 76 q 59 297 97 208 q 21 486 21 386 q 59 675 21 586 q 163 830 97 764 q 318 934 229 896 q 507 972 407 972 q 696 934 607 972 q 851 830 785 896 q 955 675 917 764 q 993 486 993 586 q 955 297 993 386 q 851 142 917 208 q 696 38 785 76 q 507 0 607 0 m 240 489 q 265 614 243 561 q 323 701 288 667 q 405 753 358 736 q 503 771 451 771 q 631 747 565 771 q 754 675 696 722 q 774 644 771 661 q 769 613 776 628 q 749 587 763 597 q 718 576 735 576 q 685 589 699 576 q 596 641 643 622 q 504 660 549 660 q 399 619 443 660 q 350 483 354 578 q 357 404 349 436 q 383 352 365 372 q 424 323 400 332 q 474 314 447 314 q 583 340 525 314 q 685 401 640 365 q 702 411 693 408 q 719 414 711 414 q 750 403 736 414 q 771 378 764 393 q 774 347 778 364 q 754 315 771 329 q 617 235 692 264 q 471 207 542 207 q 377 223 421 207 q 301 273 333 239 q 253 360 269 307 q 240 489 236 414 z "},"":{"ha":838,"x_min":21,"x_max":821,"o":"m 808 89 q 812 55 821 71 q 781 27 803 39 q 729 8 760 15 q 667 1 699 1 q 591 13 626 1 q 538 51 556 24 l 375 322 q 369 345 369 329 q 375 369 369 361 l 538 639 q 590 675 553 664 q 669 686 628 686 q 732 680 701 686 q 783 663 763 674 q 813 638 804 653 q 808 603 821 622 l 653 346 l 808 89 m 460 89 q 463 55 472 71 q 433 27 454 39 q 381 8 411 15 q 318 1 350 1 q 242 13 278 1 q 189 51 207 24 l 26 322 q 21 345 21 329 q 26 369 21 361 l 189 639 q 242 675 204 664 q 321 686 279 686 q 383 680 353 686 q 435 663 414 674 q 464 638 456 653 q 460 603 472 622 l 304 346 l 460 89 z "},"":{"ha":1014,"x_min":21,"x_max":993,"o":"m 507 863 q 360 833 429 863 q 241 752 292 803 q 160 633 190 701 q 131 486 131 564 q 160 340 131 408 q 241 220 190 271 q 360 140 292 169 q 507 110 429 110 q 653 140 585 110 q 773 220 722 169 q 853 340 824 271 q 883 486 883 408 q 853 633 883 564 q 773 752 824 701 q 653 833 722 803 q 507 863 585 863 m 507 0 q 318 38 407 0 q 163 142 229 76 q 59 297 97 208 q 21 486 21 386 q 59 675 21 586 q 163 830 97 764 q 318 934 229 896 q 507 972 407 972 q 696 934 607 972 q 851 830 785 896 q 955 675 917 764 q 993 486 993 586 q 955 297 993 386 q 851 142 917 208 q 696 38 785 76 q 507 0 607 0 m 632 222 q 586 299 611 263 q 538 365 561 336 q 496 411 515 393 q 465 431 476 429 l 389 431 l 389 249 q 372 208 389 221 q 333 194 354 194 q 297 208 314 194 q 279 249 279 221 l 279 724 q 295 763 279 747 q 335 779 311 779 l 558 779 q 666 736 626 779 q 714 636 706 693 q 699 524 722 579 q 617 442 675 468 q 683 353 653 399 q 728 275 713 307 q 736 244 738 258 q 726 218 735 229 q 705 201 718 207 q 678 194 692 194 q 651 201 664 194 q 632 222 639 207 m 558 542 q 594 561 582 542 q 606 605 606 581 q 594 649 606 629 q 558 668 582 668 l 389 668 l 389 542 l 558 542 z "},"":{"ha":396,"x_min":21,"x_max":375,"o":"m 375 1042 l 175 801 l 21 801 l 140 1042 l 375 1042 z "},"":{"ha":838,"x_min":17,"x_max":817,"o":"m 533 346 l 378 603 q 374 638 365 622 q 403 663 382 653 q 454 680 424 674 q 517 686 485 686 q 596 675 558 686 q 649 639 633 664 l 811 369 q 817 345 817 361 q 811 322 817 329 l 649 51 q 595 13 631 24 q 519 1 560 1 q 457 8 488 1 q 405 27 426 15 q 374 55 383 39 q 378 89 365 71 l 533 346 m 185 346 l 29 603 q 25 638 17 622 q 54 663 33 653 q 106 680 75 674 q 168 686 136 686 q 247 675 210 686 q 300 639 285 664 l 463 369 q 468 345 468 361 q 463 322 468 329 l 300 51 q 247 13 282 24 q 171 1 211 1 q 108 8 139 1 q 56 27 78 15 q 26 55 35 39 q 29 89 17 71 l 185 346 z "},"":{"ha":894,"x_min":17,"x_max":878,"o":"m 850 261 q 872 210 878 233 q 842 172 867 188 q 777 147 817 156 q 697 139 738 139 q 619 148 656 139 q 563 178 582 157 l 447 292 l 331 178 q 275 148 311 157 q 199 139 239 139 q 117 148 157 139 q 53 173 78 157 q 22 211 28 189 q 44 261 17 233 l 261 475 l 46 679 q 22 728 17 706 q 52 766 26 750 q 118 791 78 782 q 200 800 158 800 q 276 791 240 800 q 332 763 311 782 l 447 654 l 563 763 q 621 794 586 785 q 693 803 656 803 q 775 792 735 803 q 841 765 815 782 q 872 726 867 749 q 849 679 876 704 l 633 475 l 850 261 z "},"":{"ha":900,"x_min":21,"x_max":878,"o":"m 575 408 q 578 533 597 489 q 516 597 560 576 q 413 622 472 618 q 293 625 353 625 l 293 335 q 333 331 293 331 q 400 334 361 331 q 475 347 439 338 q 540 371 511 356 q 575 408 568 386 m 293 763 q 548 733 439 760 q 731 663 657 706 q 841 567 804 619 q 878 460 878 514 q 842 355 878 406 q 733 267 806 304 q 550 210 660 229 q 293 199 440 190 l 293 69 q 281 40 293 53 q 250 18 269 26 q 206 6 231 10 q 156 1 182 1 q 106 6 131 1 q 63 18 82 10 q 33 40 44 26 q 21 69 21 53 l 21 903 q 33 933 21 919 q 64 954 44 946 q 108 967 83 963 q 158 971 132 971 q 208 967 183 971 q 251 954 232 963 q 281 933 269 946 q 293 903 293 919 l 293 763 z "},"":{"ha":744,"x_min":22,"x_max":726,"o":"m 529 543 q 551 501 532 522 q 597 456 571 481 q 651 401 624 431 q 697 332 678 371 q 722 243 717 293 q 708 128 726 193 q 678 69 699 93 q 631 30 657 44 q 574 8 604 15 q 513 1 543 1 q 370 42 429 1 q 268 151 311 82 q 266 179 260 167 q 288 201 272 192 q 325 217 303 211 q 369 222 347 222 q 422 213 397 222 q 461 182 447 204 l 504 129 q 522 118 514 118 q 547 142 538 118 q 553 201 556 167 q 534 276 551 236 q 478 347 517 317 q 399 415 432 385 q 351 481 367 446 q 337 559 335 515 q 363 665 339 603 q 386 740 375 699 q 398 818 397 781 q 385 886 399 856 q 336 931 372 917 q 318 935 326 935 q 279 913 296 935 q 251 856 263 890 q 232 783 239 822 q 221 707 225 743 q 215 644 217 671 q 214 610 214 617 q 219 356 217 482 q 224 100 221 229 q 215 76 224 86 q 193 58 207 65 q 161 47 179 50 q 124 43 143 43 q 55 58 86 43 q 24 100 24 72 l 22 793 q 46 905 22 857 q 109 985 69 953 q 199 1033 149 1017 q 301 1049 249 1049 q 427 1025 367 1049 q 529 956 488 1001 q 585 840 571 910 q 571 679 600 771 q 558 647 567 664 q 543 612 550 629 q 532 577 536 594 q 529 543 528 560 z "},"":{"ha":683,"x_min":17,"x_max":663,"o":"m 317 113 l 325 113 q 385 145 360 113 q 426 228 411 178 q 442 340 440 279 q 430 455 443 400 q 388 551 417 510 q 311 606 358 593 q 249 552 272 593 q 218 457 226 511 q 213 344 210 403 q 231 234 217 285 q 267 149 244 183 q 317 113 289 115 m 551 988 q 606 981 581 988 q 645 965 631 975 q 661 941 660 954 q 643 915 663 928 q 565 874 606 889 q 481 847 524 858 q 588 664 544 761 q 632 460 632 567 q 624 324 632 392 q 593 197 617 256 q 528 91 569 138 q 421 19 488 44 q 314 0 369 0 q 203 22 251 0 q 122 81 156 43 q 65 168 88 118 q 31 275 43 218 q 23 413 17 343 q 53 549 29 482 q 148 674 83 632 q 300 715 213 715 q 354 711 328 715 q 328 753 342 733 q 301 794 315 774 q 220 766 261 778 q 135 754 179 754 q 69 768 90 754 q 54 803 47 782 q 97 847 61 824 q 204 889 133 871 q 224 896 213 893 q 167 957 197 928 q 154 988 151 974 q 172 1015 157 1003 q 210 1033 186 1026 q 258 1040 233 1040 q 303 1033 282 1040 q 339 1011 324 1026 q 400 946 371 982 q 401 947 401 946 q 403 947 401 947 q 426 953 414 950 q 450 963 439 957 q 499 981 474 974 q 551 988 524 988 z "},"":{"ha":894,"x_min":19,"x_max":874,"o":"m 713 418 q 833 393 793 418 q 874 338 874 368 q 833 282 874 307 q 713 257 793 257 l 182 257 q 58 282 97 257 q 22 338 19 307 q 65 393 24 368 q 182 418 107 418 l 713 418 m 283 140 q 299 175 285 160 q 336 200 314 190 q 386 215 358 210 q 443 219 414 219 q 501 215 472 219 q 552 200 529 210 q 590 175 575 190 q 606 140 604 160 l 606 81 q 590 45 604 60 q 554 22 576 31 q 505 8 532 13 q 449 3 478 3 q 388 8 418 3 q 335 23 358 13 q 298 48 313 33 q 283 81 283 63 l 283 140 m 283 617 q 299 651 285 636 q 335 676 313 667 q 384 691 357 686 q 440 696 411 696 q 499 691 469 696 q 551 676 528 686 q 589 651 574 665 q 606 617 604 636 l 606 557 q 590 522 604 536 q 554 497 576 507 q 504 483 532 488 q 447 478 476 478 q 388 483 417 478 q 335 498 358 488 q 298 523 313 508 q 283 557 283 538 l 283 617 z "},"":{"ha":721,"x_min":21,"x_max":704,"o":"m 282 163 q 375 136 333 136 q 458 168 425 136 q 508 249 492 200 q 522 353 524 297 q 501 457 521 408 q 442 538 481 506 q 344 569 403 569 q 282 560 313 569 l 282 163 m 282 753 q 308 755 296 754 q 333 756 321 756 q 533 695 453 756 q 654 544 613 635 q 700 347 696 453 q 672 151 704 242 q 572 -1 640 60 q 401 -61 504 -61 q 282 -40 347 -61 l 282 -267 q 271 -302 282 -287 q 241 -327 260 -317 q 199 -342 222 -337 q 151 -347 176 -347 q 103 -342 126 -347 q 62 -327 81 -337 q 32 -302 43 -317 q 21 -267 21 -287 l 21 958 q 32 993 21 978 q 62 1018 43 1008 q 103 1033 81 1028 q 151 1038 126 1038 q 199 1033 176 1038 q 241 1018 222 1028 q 271 993 260 1008 q 282 958 282 978 l 282 753 z "},"":{"ha":581,"x_min":18,"x_max":563,"o":"m 554 825 q 558 814 563 819 q 538 803 553 808 q 502 796 524 799 q 458 793 481 793 q 405 799 428 793 q 363 817 382 806 q 328 847 344 829 q 292 888 311 864 q 255 849 274 868 q 211 813 236 829 q 172 797 196 801 q 122 793 147 793 q 79 796 100 793 q 44 803 58 799 q 24 814 29 808 q 26 825 18 819 q 76 867 51 842 q 122 920 100 893 q 163 975 144 947 q 193 1024 181 1003 q 228 1038 200 1033 q 289 1042 256 1042 q 352 1038 324 1042 q 388 1024 381 1033 q 419 974 401 1001 q 458 920 438 947 q 503 868 479 893 q 554 825 528 843 z "},"":{"ha":581,"x_min":18,"x_max":563,"o":"m 554 1010 q 503 967 528 992 q 458 915 479 942 q 419 860 438 888 q 388 811 401 833 q 352 797 381 801 q 289 793 324 793 q 228 797 256 793 q 193 811 200 801 q 163 860 181 832 q 122 915 144 888 q 76 967 100 942 q 26 1010 51 993 q 24 1021 18 1015 q 44 1031 29 1026 q 79 1039 58 1036 q 122 1042 100 1042 q 172 1038 147 1042 q 211 1022 196 1033 q 255 986 236 1006 q 292 947 274 967 q 328 988 311 971 q 363 1017 344 1006 q 405 1035 382 1029 q 458 1042 428 1042 q 502 1039 481 1042 q 538 1031 524 1036 q 558 1021 553 1026 q 554 1010 563 1015 z "},"":{"ha":389,"x_min":21,"x_max":368,"o":"m 194 1119 q 115 1086 147 1119 q 82 1007 82 1053 q 115 927 82 960 q 194 894 147 894 q 274 927 242 894 q 307 1007 307 960 q 274 1086 307 1053 q 194 1119 242 1119 m 194 833 q 127 847 158 833 q 72 885 96 861 q 35 940 49 908 q 21 1007 21 971 q 35 1074 21 1043 q 72 1129 49 1106 q 127 1167 96 1153 q 194 1181 158 1181 q 262 1167 231 1181 q 317 1129 293 1153 q 354 1074 340 1106 q 368 1007 368 1043 q 354 940 368 971 q 317 885 340 908 q 262 847 293 861 q 194 833 231 833 z "},"":{"ha":603,"x_min":18,"x_max":585,"o":"m 513 999 q 535 992 521 997 q 560 978 549 988 q 578 956 572 969 q 578 926 585 943 q 501 844 551 867 q 399 822 451 822 q 315 833 356 822 q 293 842 308 836 q 263 853 278 847 q 233 863 247 858 q 214 867 219 867 q 160 824 188 836 q 108 811 133 811 q 68 819 86 811 q 38 838 50 826 q 22 863 26 850 q 25 888 18 876 q 106 966 60 944 q 204 988 153 988 q 287 976 244 988 q 367 950 329 965 q 381 947 378 947 q 399 956 392 947 q 416 974 407 964 q 440 993 425 985 q 482 1001 456 1001 q 497 1001 489 1001 q 513 999 504 1000 z "},"":{"ha":649,"x_min":21,"x_max":628,"o":"m 628 1042 l 428 801 l 274 801 l 393 1042 l 628 1042 m 375 1042 l 175 801 l 21 801 l 140 1042 l 375 1042 z "},"":{"ha":657,"x_min":21,"x_max":636,"o":"m 564 426 q 583 424 571 426 q 608 417 596 422 q 628 403 619 413 q 636 381 636 394 q 628 358 636 367 q 608 344 619 349 q 584 338 596 339 q 564 336 572 336 l 94 336 q 74 338 86 336 q 49 345 61 340 q 29 358 38 350 q 21 381 21 367 q 29 403 21 394 q 49 417 38 413 q 74 424 61 422 q 94 426 86 426 l 564 426 z "},"":{"ha":1265,"x_min":21,"x_max":1244,"o":"m 1101 426 q 1140 424 1115 426 q 1187 417 1164 422 q 1227 403 1210 413 q 1244 381 1244 394 q 1228 358 1244 367 q 1188 344 1211 349 q 1141 338 1165 339 q 1101 336 1117 336 l 167 336 q 127 338 151 336 q 79 345 103 340 q 38 358 56 350 q 21 381 21 367 q 38 403 21 394 q 78 417 54 413 q 126 424 101 422 q 167 426 150 426 l 1101 426 z "},"":{"ha":256,"x_min":21,"x_max":239,"o":"m 118 694 q 49 723 78 694 q 21 792 21 751 l 21 797 q 26 840 21 815 q 45 888 32 864 q 81 934 58 913 q 138 968 103 956 q 163 972 149 972 q 203 960 185 972 q 231 925 222 947 q 231 878 239 901 q 203 840 222 856 q 217 792 217 817 q 188 723 217 751 q 118 694 158 694 z "},"":{"ha":256,"x_min":17,"x_max":235,"o":"m 138 972 q 206 944 178 972 q 235 875 235 915 l 235 869 q 229 827 235 851 q 210 778 224 803 q 175 733 197 754 q 118 699 153 711 q 93 694 108 694 q 52 707 71 694 q 25 742 33 719 q 25 788 17 765 q 53 826 33 811 q 39 875 39 850 q 68 944 39 915 q 138 972 97 972 z "},"":{"ha":256,"x_min":17,"x_max":235,"o":"m 138 146 q 206 117 178 146 q 235 49 235 89 l 235 43 q 229 1 235 25 q 210 -48 224 -24 q 175 -94 197 -72 q 118 -128 153 -115 q 93 -132 108 -132 q 52 -119 71 -132 q 25 -85 33 -107 q 25 -38 17 -61 q 53 0 33 -15 q 39 49 39 24 q 68 117 39 89 q 138 146 97 146 z "},"":{"ha":465,"x_min":21,"x_max":449,"o":"m 328 690 q 259 719 288 690 q 231 788 231 747 l 231 793 q 236 835 231 811 q 255 884 242 860 q 290 930 268 908 q 347 964 313 951 q 372 968 358 968 q 413 956 394 968 q 440 921 432 943 q 440 874 449 897 q 413 836 432 851 q 426 788 426 813 q 397 719 426 747 q 328 690 368 690 m 118 694 q 49 723 78 694 q 21 792 21 751 l 21 797 q 26 840 21 815 q 45 888 32 864 q 81 934 58 913 q 138 968 103 956 q 163 972 149 972 q 203 960 185 972 q 231 925 222 947 q 231 878 239 901 q 203 840 222 856 q 217 792 217 817 q 188 723 217 751 q 118 694 158 694 z "},"":{"ha":465,"x_min":17,"x_max":444,"o":"m 347 968 q 416 940 388 968 q 444 871 444 911 l 444 865 q 439 823 444 847 q 420 774 433 799 q 385 728 407 750 q 328 694 363 707 q 303 690 318 690 q 262 703 281 690 q 235 738 243 715 q 235 784 226 761 q 263 822 243 807 q 249 871 249 846 q 278 940 249 911 q 347 968 307 968 m 138 972 q 206 944 178 972 q 235 875 235 915 l 235 869 q 229 827 235 851 q 210 778 224 803 q 175 733 197 754 q 118 699 153 711 q 93 694 108 694 q 52 707 71 694 q 25 742 33 719 q 25 788 17 765 q 53 826 33 811 q 39 875 39 850 q 68 944 39 915 q 138 972 97 972 z "},"":{"ha":465,"x_min":17,"x_max":444,"o":"m 347 146 q 416 117 388 146 q 444 49 444 89 l 444 43 q 439 1 444 25 q 420 -48 433 -24 q 385 -94 407 -72 q 328 -128 363 -115 q 303 -132 318 -132 q 262 -119 281 -132 q 235 -85 243 -107 q 235 -38 226 -61 q 263 0 243 -15 q 249 49 249 24 q 278 117 249 89 q 347 146 307 146 m 138 150 q 206 122 178 150 q 235 53 235 93 l 235 47 q 229 5 235 29 q 210 -44 224 -19 q 175 -90 197 -68 q 118 -124 153 -111 q 93 -128 108 -128 q 52 -115 71 -128 q 25 -81 33 -103 q 25 -34 17 -57 q 53 4 33 -11 q 39 53 39 28 q 68 122 39 93 q 138 150 97 150 z "},"":{"ha":396,"x_min":21,"x_max":375,"o":"m 375 500 q 361 432 375 464 q 323 376 347 400 q 266 338 299 351 q 197 324 233 324 q 129 338 161 324 q 73 376 97 351 q 35 432 49 400 q 21 500 21 464 q 35 569 21 538 q 73 626 49 601 q 129 664 97 650 q 197 678 161 678 q 266 664 233 678 q 323 626 299 650 q 361 569 347 601 q 375 500 375 538 z "},"":{"ha":879,"x_min":14,"x_max":860,"o":"m 215 156 q 250 121 236 142 q 269 76 264 100 q 269 28 274 53 q 251 -18 265 4 q 207 -60 235 -44 q 147 -75 179 -75 q 79 -54 108 -75 q 24 24 35 -26 q 42 118 14 74 q 88 160 60 146 q 149 175 117 175 q 215 156 185 175 m 508 156 q 543 121 529 142 q 562 76 557 100 q 563 28 567 53 q 544 -18 558 4 q 500 -60 528 -44 q 440 -75 472 -75 q 372 -54 401 -75 q 317 24 328 -26 q 335 118 307 74 q 381 160 353 146 q 442 175 410 175 q 508 156 478 175 m 801 156 q 836 121 822 142 q 855 76 850 100 q 856 28 860 53 q 838 -18 851 4 q 793 -60 821 -44 q 733 -75 765 -75 q 665 -54 694 -75 q 610 24 621 -26 q 628 118 600 74 q 674 160 646 146 q 735 175 703 175 q 801 156 771 175 z "},"":{"ha":489,"x_min":21,"x_max":472,"o":"m 460 89 q 463 55 472 71 q 433 27 454 39 q 381 8 411 15 q 318 1 350 1 q 242 13 278 1 q 189 51 207 24 l 26 322 q 21 345 21 329 q 26 369 21 361 l 189 639 q 242 675 204 664 q 321 686 279 686 q 383 680 353 686 q 435 663 414 674 q 464 638 456 653 q 460 603 472 622 l 304 346 l 460 89 z "},"":{"ha":489,"x_min":17,"x_max":468,"o":"m 185 346 l 29 603 q 25 638 17 622 q 54 663 33 653 q 106 680 75 674 q 168 686 136 686 q 247 675 210 686 q 300 639 285 664 l 463 369 q 468 345 468 361 q 463 322 468 329 l 300 51 q 247 13 282 24 q 171 1 211 1 q 108 8 139 1 q 56 27 78 15 q 26 55 35 39 q 29 89 17 71 l 185 346 z "},"":{"ha":1031,"x_min":21,"x_max":1015,"o":"m 946 163 q 1008 119 1000 147 q 988 65 1015 92 q 907 19 961 39 q 783 0 853 0 q 675 15 732 0 q 563 63 618 29 q 455 155 507 97 q 361 297 403 213 l 156 297 q 54 318 88 297 q 22 364 21 339 q 56 410 22 389 q 156 431 89 431 l 313 431 q 306 465 308 449 q 301 500 303 482 l 190 500 q 90 521 124 500 q 57 567 57 542 q 90 614 57 593 q 190 635 124 635 l 306 635 q 365 775 322 713 q 465 881 407 838 q 594 947 524 924 q 740 969 665 969 q 855 956 799 969 q 964 911 911 942 q 1005 868 1004 889 q 985 831 1006 847 q 928 806 964 815 q 857 797 892 797 q 833 799 844 797 q 810 803 821 800 q 774 819 792 807 q 740 831 757 831 q 681 810 708 831 q 631 758 653 789 q 593 694 608 728 q 572 635 578 660 l 781 635 q 881 614 847 635 q 915 567 915 593 q 882 521 915 542 q 781 500 849 500 l 565 500 q 572 465 568 482 q 579 431 575 449 l 781 431 q 880 410 846 431 q 915 364 914 389 q 883 318 915 339 q 781 297 850 297 l 639 297 q 691 224 669 253 q 728 179 713 196 q 756 156 744 163 q 778 150 768 150 q 818 161 797 150 q 879 172 839 172 q 946 163 908 172 z "},"":{"ha":1235,"x_min":21,"x_max":1214,"o":"m 408 965 q 483 950 460 965 q 506 916 507 935 q 481 882 506 897 q 408 867 456 867 l 390 867 l 390 531 q 358 494 390 507 q 288 482 326 482 q 222 494 251 482 q 192 531 192 506 l 192 867 l 121 867 q 45 882 69 867 q 22 916 21 897 q 47 950 22 935 q 121 965 72 965 l 408 965 m 1214 922 l 1214 528 q 1184 490 1214 503 q 1118 478 1154 478 q 1047 491 1079 478 q 1015 528 1015 504 l 1015 594 l 965 524 q 924 495 951 504 q 867 486 897 486 q 809 495 836 486 q 768 524 782 504 l 718 594 l 718 528 q 685 490 718 503 q 615 478 653 478 q 549 490 579 478 q 519 528 519 501 l 519 922 q 549 958 519 946 q 615 969 579 969 q 679 960 649 969 q 721 932 710 951 q 791 807 754 868 q 867 686 828 746 q 943 807 907 746 q 1014 932 979 868 q 1052 961 1024 951 q 1113 971 1081 971 q 1182 958 1150 971 q 1214 922 1214 946 z "},"":{"ha":739,"x_min":21,"x_max":718,"o":"m 636 529 q 658 527 644 529 q 685 519 672 525 q 708 503 699 513 q 718 476 718 493 q 708 451 718 461 q 685 436 699 442 q 658 428 672 431 q 636 426 644 426 l 104 426 q 81 428 96 426 q 53 436 67 431 q 31 451 40 442 q 21 476 21 461 q 31 503 21 493 q 53 519 40 513 q 81 527 67 525 q 104 529 94 529 l 636 529 z "}}}
